/* XPM */
static char *_015d5f84fde4d08925419e8121d7301D4vD1UYDB5omnitT[] = {
/* columns rows colors chars-per-pixel */
"64 63 19 1 ",
"  c gray22",
". c #202020",
"X c #2C2C2C",
"o c #484848",
"O c #C80000",
"+ c #A40000",
"@ c #880000",
"# c #BC0000",
"$ c #B00000",
"% c #980000",
"& c #700000",
"* c #4C0000",
"= c #640000",
"- c #7C0000",
"; c #580000",
": c #D40000",
"> c #400000",
", c gray33",
"< c white",
/* pixels */
"  . XXXXX XXXXXX X.XXXXXXX      XXXXXXXXX       XXXX...XX  XXXXX",
"o.OOOO+++++++@XX ####$$$$++++%%%%%%%%@X. OOOO$$$$$+++++++%%%%%%@",
"XXO$%%#&@#&$@*.X #+&+&+&+=+-+-+=+=+$@;.X.O@$%$%%$;$=$%$&%@=$-$@=",
"XX$@=@&@-;@&;*.X #+&&@&;@@;-@@;-@;@-;*.X O@@=*@&;&@=&@@&@=&@*@;*",
"XX$=@@;-@@;@**.X $&+@&@;@&@;@;&=@;-=;*.XXO;@*&@*@;@=@&@*@-=@=@;*",
"XX$@=&-=@;&@;*.X ++&@&&-@;&;@&;-=&;@;*..X+;@=@&*@;;@@;@&@@=@*@&*",
"XX-=@@;@-;-;**.XX$$&@;@;@;@;-&;=@;-=;*..X--@*&@=&;&=@&@*@=&@=@;*",
"XX-@;&*;=*;&;*.. --;;*&;;&;*;&;&;*&;;*..X$;;*;;*&*;*&*;*&**;&;&*",
"XX=***********..X=********************..X&**********;*******;***",
"XXX............. X.....................X .......................",
"  ....XXXX.....X.XXXXXXX... XXX..XXXXXX .X    oooo  XX... . XXX ",
":$$$++++++++++++@X X###$$$$$$$$++++++++++++%%%%%%%%%%@X. ##$$$$$",
"$%&&%-=%=-&%*%&@*.X #;%$=+*&+&&$-@&=&@&@&@=$*$&-+$-$@*.X.#$=%&%&",
"%&@&@=&&*@&*&@@;*.XX$%;@=@@&@*@;*&@=@=@*@@&*@&@;&@;@;*.X #%=@&=@",
"-;@@&-*@=&&-*@&;*..X$;@&-&&*&&;@&*@&=*=&&@*&=@;@;@@;;*.XX$=@@@=@",
"-@&&@&==&=@-*@*;*..X$;@@=@*&@*;@*&@=&=@*@&*@*@;&;@;@;*..X$%=@=@-",
"@;@*@;&=-*@*&@@;*.X $%*@=@&*&*&;*@&=*=@*&*&@*&@;&@;@;*..X%=@@*@=",
"&;%*;*=;-;-;*-;;*.X %@;&*;-;&*;&*;-;-*&;&&*-;;&*;-;&;*.X %@=;*;-",
">*;**************.X @*********************************.X.@******",
"X.................X.X..................................X X......",
"o  X..X . .XX....XX XXX .X.X. XXX . XX...XXXX ...XXXX X . ... XX",
"o ###$$+++++++++%%%%%%%%%%%%@X  ###$$$$$$$++++++++%%%%%%%%%%%%%@",
"X $&%+=+=+=%&%&%$&%&%&+%*%$;*.X #+;#@%&@%&%-%=*@&;&@=&@-&@=&@*@*",
"X.$%&@-@=;&@@&-&@&*@;@&*&@;%*.Xo#+-@*@*&;-&*@*&@*@;@=@&@*@-=@=;*",
"XX$*@@;&*@*@;@&-@*&@;&@&*=@;*. o#+=@=@*@;-@=@=@&*@;;@-;-&@@=@*;*",
"XX$%&@*@*;&@&;=@=&*=@*@&*@;**. o#;@;-&*&-;@*&*&@=&;&=@&@*@=&@=;*",
"X $;*@*&=@*@*@*@&*&@&*@*&==%*.X %$;@;@&@&;@*@*;;*@*@*@*@@&**;&;*",
"XX$@*;;;*;*;;&*&;;&;;*;-;-;;*.. $@;-;&*;;;;*&;&*@*;@*;&*@*@*@;;*",
"XX@-*************************.. @*******************************",
"XXX...........................XXX...............................",
"      XX.X...X oo   XXXX...X... XXX . X XX.X.XX  XXX.XXXX . XXX ",
"#+++%%%%%%%@X. #$$$$++++++++++++%%%%%%%%@X  ##$$$+++++++++++++++",
"+@%@%-$%%$@*.X.#@*@;@@*@&@@;@&*@@*@@;@=@*.X #@=@;@@*@=&=@;@&@=@;",
"&@=&@-@=@&;*.X $*@=&@=@-;@&&;&&@&*@;&@*@*.  $@*@;@&*@&@=&&-;-=-&",
"&&=@-=@=-@;*.X.$*@@=-@;@;@&@*@*&&@&;-@=@*. o$@=@;@&@&@@=@;-&@-=@",
"@@&=@-@-=&;*.X $-*@=@=*-&&&;&@*@&*&-;&@=*. o$=@@;@*@@==@=@&--&=;",
"&@&=@=@=-@;*.XX$*@=*-@;&&@&@;&**-*@-;@=@*.X $@=@@;@&&=@=@;-&@=&@",
"&;;&-;;-;;;*.XX-*@@*@=;@;@*@*&*@&*-;-@*=*.X $@*@;@@&@&@=@;-;-=@@",
">***********.XX@*************************.XX@*******************",
"X............X X..........................XXX......X............",
"  X .X..XX....XX...XXXXX  XX... XXX .X.X.XX X . X oo  XX. X X . ",
"o.##$$$$$+++++++++%%%%%%%%%%%%%%@. .##$$$$+++++++++++%%%%%%%%%%@",
"X #@&&@*@@=-@=@;&@*@=@&@*@*@@=;@*.X #@@*@*@*@;@*@&*-&;@&=@=-;&@*",
"XX$@*@&*@&-=@*&*@-*@*&-&*@=@=@;-*.XX$&@*&*=*&*-=@*@*@;&;@&=-@*&*",
"XX$&*@*&;*@*@&=&@*-&&*=@*-*&*&&;*..X$&@**&@=*@=*-@*@;;@;@=@;&*@*",
"X.$@&@&*@&=-@=@*&@*@*&@*-@=@@@;=*..X$@*@&*@*@;-==*&*@=&-&-=;@&@*",
"X $@*&@*@*@*@*@;@**@*&=@=&*-*&;@*.. $@**@*=*@*@*-*@*&;@;=@=-&*;*",
"X.$@*@*&;&-=@&&&@-*&=**@*@;-=@;@*.. $;@*&*@*=@=*-;&*@;@;@=-;@*@*",
"X @******************************.X @***************************",
"X.X...............................X.X...........................",
"o . . X XXXX oo X . X XX...XX XX.XX . XXXXXXXX     XXXX......XX ",
"#++++++%%%%%%%%%%%@X X####$$$$$++++++%%%%%%%%%%@X. ####$$$++++++",
"&=@*@@*-*@=$=@*@=@*.XX#@@@@*@*@=@*@*@-@*@*@*@;**.X $@*&@*@;@;@*@",
"*@==@=@*-=*@*=*&*&*.XX$=@;@*;*=-=@&*&-*=&;&*@*@*.X #*@*@;@;&@;@&",
"@@=*=@*-*=@=*@&*-=*.XX%==;@*==@*@*@@*@*@*&*&&*;*.X #*@;;@@&;&;*;",
"+=-*-**@*@=@*=;*@**.X.%@*;@*@*@=-*@*&=*@*@&*;-**.X #@**@&;;@;@*;",
"+*@=@*@*&@*@=*&@=&*.X $*@@*@=;&*=*@*@*==*&;*&;**.XX#*@&@;@&;;*@;",
"**@==*--*-*=*@*@*-*.XX$*@;@*==&*-*&*@=*@&*@*@*&*..X#*@*;*@;@;**@",
"&=-*@**&*==@*@*;&=*.X $@*;@*@*&*@*@;*@*=@*&;&*&*..X$***@*@;@;@*@",
"*******************.XX@*************************.X @************",
"X...................X X...........................XX............",
"o. . ...XXXXX  .XXXX     XXX XXX XX.XXXX..X..XX... XX. XXXX...XX",
",ooooooooooooooooooooooooooooooooooooooooooooooooooooooooooooooo"
};
