/* XPM */
static char *result[] = {
/* columns rows colors chars-per-pixel */
"60 60 40 1 ",
"  c gray33",
". c #484848",
"X c gainsboro",
"o c #202020",
"O c gray22",
"+ c gray55",
"@ c gray66",
"# c #C0C0C0",
"$ c #D0D0D0",
"% c #B4B4B4",
"& c gray44",
"* c #7C7C7C",
"= c #646464",
"- c #FCF400",
"; c #FCA85C",
": c #FCFCD8",
"> c #989898",
", c #FC8820",
"< c black",
"1 c #CC6000",
"2 c #9C4C00",
"3 c #FC0000",
"4 c #B00000",
"5 c #2C2C2C",
"6 c #880000",
"7 c #E00000",
"8 c #980000",
"9 c #7C0000",
"0 c #700000",
"q c #BC0000",
"w c #ECECEC",
"e c #D40000",
"r c #C80000",
"t c #A80000",
"y c gray99",
"u c #EC0000",
"i c #FC2020",
"p c #FC5C5C",
"a c #A40000",
"s c white",
/* pixels */
"        .XXXXXXXXXXXXXXXXoO+@#$$$$$$##@+ o..........        ",
"        .X$$$#$$$$$$#$$$+oO+#%+@++++++@ OoO&++++++*&=.......",
"+++++-o .X$#%$%$#%$##%$+=oO@X@+@+@+@+@+ OoO+XXXXXX#%@++-++++",
"$$%@;:o .X$@@@@+@@@@>@@* oO+#+++@@@@++& OoO+XX###$XXXXX:;$$$",
"@@;-::,---<<-------------------------------------<<---::--;@",
"@>111-2222@<<<2222222222222222222222222222222222<<@<222;111 ",
"*%+= ,o  oo334<<555555555555555555555555555555<<64<<   1    ",
"@>>&..o5.==33774899<OO...             ...OOO0444q4  =**= =**",
"++& ..o5.@w3377erq4tt4qe3y.y3eqt%<>t684reuii337eq4 =*++@+*@+",
"&& .OOo5.+X3377erq4tt4qe3y.y3eqt%<>t684reuii337eq4 =*&&=====",
"..Ooooo5.&X3377erq4tt4qe3y.y3eqt%<>t684reuii337eq4     .....",
"ooo5555O .X3377erq4tt4qe3y.y3eqt%<>t684reuii337eq4OOOOOOO555",
"5555555O .@3377erq4tt4qe3y.y3eqt%<>t684reuii337eq4OOO55ooooo",
"OOOOOOOO .+3377erq4tt4qe3y.y3eqt%<>t684reuii337eq4555OOOOOOO",
"OOOOOOOO .&3377erq4tt4qe3y.y3eqt%<>t684reuii337eq4oo........",
">>>>>>>5o .3377erq4tt4qe3y.y3eqt%<>t684reuii337eq4 =*>>>>>>>",
"$$$$%%&Oo .3377erq4tt4qepy.y3eqt%<>t684reuii337eq4 =*XXXXXXX",
"+@+@@&&Oo .3377erq4tt4qpyy.ywwX$%<>>=84reuii337eq4 =*%%%%%%%",
"@+@++&&Oo. 3377erq4tt4&Xy .ywwX$%@<<*&.reuii337eq4 =*>@>@+>+",
"+@+@@& Oo. 3377erq4tt&#5.y>.OO5oo<>><<>&euii337eq4 =*>+>+>**",
"@+@++& Oo. 3377erq4t&#5&y .ywwX$%@<<*&<@&uii337eq4 =*>@>@+>+",
"**++@& OoO 3377erq4t%<&X.yy OO+$%@>&<&&<%uii337eq4 =*>+>+>**",
"**+@+=.OoO+3377erq4@<&#5yy+.OO $%@>>*<>&<$ii337eq4 =*+@+@+**",
"@@+++=.OoOX3377erq=@<#5Xy+..O +$% <5*&<@<$>i337eq4 =*>+>++@+",
"++@+& OOoOX3377erq+<%<#X+ .. +X$ <<<5&><%<wi33ueq4OOO   ==&*",
"=== .OOOoOXyyy$%>++<%<#@. .. +X o<<<<5><&<wwwX$@+&OOO...... ",
".OOOooooOOX**OOO<<<@<##X+ ..O  oo<<<<<5&<$.=  5<<<oooooooooO",
"oooo......Xyyy$%>++@<##Xy+..OO5oo<5<<<<@<$wwwX$@+&ooOOOO555o",
"=&+>++++.oX3377erq+@<##Xyy+.OO5oo5>5<<<@<$wi337rq4..       O",
"%XXX$$$@&oX3377erq+@<#5+yyy OO5o5=>>555@<$wi337rq4 =*+= ....",
"$$#%@@>@.ow3377erq+@<#55+y+.OO5oo<=>*&>@<$wi337rq4 =*XXXXXX>",
"%@@+@>@+&owyyy$%>++@<#55. ..OO oo<<=*&>@<$wwwX$@+& =*@++@++*",
"%>+@+@+@&ow**OOO<<<@<# 5. ..O+X o<<<*&>&<$.=  5<<< =*+@@+@+=",
"@>@+@@*@ oXyyy$%+++<&<# . ..+wX$ <<<<&><%<wwwX$@+& =*++@++@=",
"%@++@>@+ oX3377erq+<%<#X+ .+wwX$ <<<<&><%<wi337eq4 =*+@+@+@ ",
"%+@@+@+@ o#3377erq4@<#5XyyyywwX o<<<*&<@<$+i337eq4 =*++@++@ ",
"%@@+@>@+ o%3377erq4@<##5yyyywwXoo<<>*<>&<wii337eq4OO       O",
"%+@@+@*@ o>3377erq4t%<#X.yyywwX o<>.<&&<%&ii337eq4oooooooooo",
"%++>@+@+ o*3377erq4tp#5Xy .ywwX$%@<<*.<@+uii337eq4ooOOOOOOOO",
"%@@+>@>@Oo 3377erq4ttp#5.yy.OO5oo<>><<>+euii337eq4O. *******",
"%++@+@+&Oo.3377erq4tt4pX@ .ywwX$%&<<*&&reuii337eq4 =*######*",
"%@@>@+@ o5.3377erq4tt4qe>y.ywwX$%<>>=84reuii337eq4 =*wXX$$>=",
"%>@+@@+ o5.3377erq4tt4qe3y.y3eqt%<>t684reuii337eq4 =*#%##%* ",
"%@+@+++ o5.3377erq4tt4qe3y.y3eqt%<>t684reuii337eq4 =*@+@+@& ",
"++@+&&&OoO.3377erq4tt4qe3y.y3eqt%<>t684reuii337eq4 =*+@@@+& ",
"@@@+   o5O.3377erq4tt4qe3y.y3eqt%<>t684reuii337eq4 =*@+@+@& ",
"**    Oo5O.3377erq4tt4qe3y.y3eqt%<>t684reuii337eq4 =*+*>+>& ",
"oooOOOOoO..3377erq4tt4qe3y.y3eqt%<>t684reuii337eq4 =*+@+**& ",
" .Ooo5o5O.O3377erq4tt4qe3y.y3eqt%<>t684reuii337eq4 =**+>**& ",
".....555O.O3377erq4tt4qe3y.y3eqt%<>t684reuii337eq4 =*++++>&O",
"@@@@>+=.. O3377erq4tt4qe3y.y3eqt%<>t684reuii337eq4 =******=O",
"#XXXXX#@@+&3377erq4tt4qe3y.y3eqt%<>t684reuii337eq4OOOOOOOOOo",
"X@@+#$XXX#@3377erq4tt4qe3y.y3eqt%<>t684reuii337eq4ooooooooo5",
"X@@@%%+@#XX3377erq4tt4qe3y.y3eqt%<>t684reuii337eq4oo555555OO",
"X@+@**@>+*@3377erq4tt4qe3y.y3eqt%<>t684reuii337eq4ooOOOOOO..",
"$@@@>@+>+>@+       ..OO88@<@8888=<=<<<<9aeii337eqoo.......  ",
"#@+@**>@+@@>+*******&==        oO.       .OOOOOO.. *XX$#%>*.",
"+============================  OoO.****&&=== ==***+@+@>@+@X>",
"=OOOOOOOOOOOOOOOOOOOOOOOOOOOOOOOo5.%@%*****=.%@+@+@@@+@+@+@ ",
"ooooooooooooooooooooooooooooooooo5.O.O =====.X@>>@@>>@>@@++ "
};
