/* XPM */
static char *result[] = {
/* columns rows colors chars-per-pixel */
"60 63 20 1 ",
"  c #202020",
". c #000098",
"X c #000088",
"o c #00007C",
"O c #000070",
"+ c black",
"@ c #000064",
"# c #000058",
"$ c #0000A4",
"% c #00004C",
"& c #0000B0",
"* c #0000BC",
"= c #2024FC",
"- c #000040",
"; c #4040FC",
": c #0000FC",
"> c #0000D4",
", c gray22",
"< c gray33",
"1 c white",
/* pixels */
" .....................XXXoOO+ ........Xoooo+ ........oo@#+$$",
" ...o.O..XOXXOXXXOO.oOOOO@#%+ ..XXo..Xoooo%+ .&$&$&&&&&XO+$$",
" .XOoXXXOO.X.#XX#oOOXXOO@##%+ .X..oXXOoO.@%+ .$&&.&*$&.XO+..",
" .o.@X@XOOOXooO#o@X#O@##%%%#+ .XooXXOoO@%#%+ .&$.*&$.Xoo@+o@",
" .oO...#OOO.XXXooO@#OOO@@#%#+ ..o..O@@@o#%%+ .&.*=*.&.X@O+Xo",
" .XX$$...X...XX@o%O#OOOO@%%%+ ...ooO@ooo@#%+ .$&.&&..$OO@+XO",
" ..X.$$.XO#..XooO@@@#OO@#%##+ ..oOoooOoO#%%+ .$&$.$$$.O@O+X#",
" .XOX..oXOX@@ooo##Oo%@@@##%%+ .Xoo@o..O@O%#+ .$*$$oo..X@#+++",
" .ooo.OOO..@%#%@%o@O@#@@#%%%+ .oo@OOoo@#%#%+ .$&.$oooXo#%+X$",
" XOo.oo@X..@@%%%@#O@#@OO@%#%+ XoO@@oo@O#%#%+ .$&&.ooooO##+.$",
" XoXOO.o#O%O%%%%##o--%OOO%%%+ XoO@@@o%@%@%%+ .$&&$.ooXO##+X.",
" XOXO#ooO#O#O#%@%@%---%@@%#%+ XOo@@##@#%##%+ .$&&.XXOo@%%+X.",
" XXOOO@#%%#O#@##%%%%--%%%%%%+ oo@@#%%%%#%#%+ .$.&oXoXOO%#+oo",
" XOX##@#O#@%%#%####%%%%%%%%%+ o#o##%%%%%%%%+ X&$&&o.o@#%%+O@",
" ++++++++++++++++++++++++++++ ++++++++++++++ X&$.XXoo#%#%+++",
".&$.$.....$....                              X$&X&OXOO#%%+@*",
"&$.X.&$.o..O.XO+  #OXOXX..OO%%--   %@XX.oO@@ X&$&XX*XO@#%+o*",
"&$XXo..oOXXOOXX+ #OXXXX.$..o#@@#%  @X.OoOoO#+XX.$&XXOO@%#+.*",
"$.X$$XXOOOXOOOO+ XXX$.$$OoX#@#%#@  O.O@#O#%O+o$$&$XoO#%##+.*",
".oX$&$OOXXOX%OO+-$X$o$.O%@O@%%#@O+ oo.O@@%@#+o&$$@@oO@##%+$*",
"..oX$$OXOO##@OO+-..$$.$X@O@%###%@+ @.oo#%O%%+O...@@@O@%%%+&*",
"$oOoX.XOOX#@O%%+%.$$.*XoO@###%@@%+ @@#%%#%##+OX..o@@@#%%%+$*",
"$.oXOXOXXO@O#O%+@X..oOoo@@O@#@%%@+  +++++++++OXX&OO@@@%#%+$*",
"$$Xo$XXXXOO@%%%+@X.oOXo@%@@X@O@O@+..&&..XXo+ XX.XXO@@%#%%+.*",
"$.oOo$$#OXoo@%#+@XoO$.XO@Oo*$o@#@+.&&.Xo@oO+ X&$.XOO@###%+.*",
".XOo.$$.XOoo@%#+%ooOX$XXooX$oOO@O+.X..o@.@#+ .&$&.Xo@#%##+.*",
"$X$XX.$.#O@@@%%+-OOo$;$o.XOXo@o#O+..XOo.o@@+ .$.&.XO@##@%+o*",
".oo..X..#@%#%%%+-OOoX$..X..oXO%O%+...X.@@o@+ ..X.oXoO%%%#+o*",
".Xo...XO@#%#--%++OoX.o.o.$@$@%#@%+.*$.o@###+ .X.oOOOO%%%%+o*",
"XoXo..O##%%%--#++#OOXOX.X.$@%#O%%+.X$.o@@@#+ .X&.Xo@@%@%%+o*",
"XooOooO##@OO#%#+ %#OOOOX.@OX@O%%%+.XX.O##@%+ ..$&.o@#OO%%+o*",
"Xo.X@OO@#@OO#%%+  -%%%%%%%%%%%%%-+.X.#@O@#%+ ..$$..XO#O#%+o*",
"X.XooO##%#@@#%%+   +++++++++++++++..oO###%%+ .&&.XXXXo#%%+o*",
"OXXoOOOO%#-%%#%+  ######@@@####%  .oo@%%#%%+ .&&.XOXXoO@%+@*",
"OooO@OOO%---%%%+  #@OXXOXooOO##%+ ..oO#%#%%+ .X&X&O@oO@#%+@*",
"Oo#@O#OO%----#%+  #OXXoXO@o@@o@%+ ..OX@#%%%+ ...$XX@@###%+@$",
"OXO#O#@%#-%--%%+  #Xo@XX@o@%@X@@+ ..X.O@#%%+ .&.XX@%%@%%%+@$",
"OoXo@O@%%%---%%+  #XOXOOX@o#%@@%+ .X.XoO@##+ .&X.X@#%%@%%+@$",
"OXoO#@O@%%#%%##+  #oXXO@#%#%%#%%+ ..oOO@##%+ X$XXOO@##%%%+@X",
"++++++++++++++++  #XoO#%%#%%@@@%+ XXOO#@%#%+ X.XO%O%%#%%%+ +",
"      %%@@oooO@#%% ++++++++++++++ X.O#@@%%#+ oO%#%@@#%%%%+ @",
"  X.$&&&&&&&&&&&&$$$..XXO         XXO@#%%%%+ oO##%%%%#%@%+ @",
"  .&&&&&$.$&...&..$$Oooo#+ %%##@  XOo@%%%%%+  ++++++++++++ %",
"  .&$$.$$&&&X.&&&$.o$#O%#+ %Xo$O+ oOo#@#%##+                ",
"  &&&$$&&XX.&&X$o.XXOo#%#+ %.$X%+ OO#@#%%%%+  &&&&&&&&&&&&&$",
"  &.$.$$$XXX&.oo.OXXXO@%%+ #$$.o+  +++++++++  &&&&$$..$$$..$",
"  &&$Xo$$.XX.&&...OXXO%%#+ #.o@%+ oX.$...Xoo  &$$&$.**.$.X&&",
"  &&X.&$o.$$$O..:.X#@#%#%+ @X@%%+ X.$.X$X$@@+ &&$$.&&*OOXoOX",
"  &&&&.o&o$OO.o..XOXXO###+ @o#%#+ .$$.oOo@%#+ &$&$.$$.OOOX.O",
"  &.&X..&$XOOO..@OXOO#%O%+  +++++ X.ooO@%#%%+ &&$>>.X.XOO.oo",
"  &$XX&>&.o.OO..ooOX@@#%%+        +++++++++++ &$.>>*&$.X$O@X",
"  &.&.>;>XX.XoOooooO--%#%+ XXX.......XXXoo@@  &$.X**.XOXOoXX",
"  &$&$&>&.O..###Ooo@---%%+ X.Xo.oX..oX.OO@@%+ &..$XoXo.oOo.o",
"  &.&$$$oooO@####@@@%--%%+ XXooo...$Xooo#@%%+ &&.XXooOoXXXo@",
"  .&$$.OOX.XXO####@#%O%%%+ .o..$X.X...XoO@%#+ &$.XOOO@OoXO#%",
"  &.&$oo$O..X@O%@OO%#%%%#+ ..o.XoOoX..XoO%##+ &$&$.o@%%O@%%-",
"  &.&.XoO#o..X@#%OOO%#%#%+ Xo.Xo.OoXXXoO@#%%+ &&..OOX%%#@%%-",
"  $.ooo.#o#oXX@@#OOO%%@%%+ X.oOOOo@OOoO@#%%%+ $X.X&XOO#@%@%%",
"  $.@#o#.OOX%#%%#%OO%%##%+ oX.O@O#O@O@@@%##%+ $&.OX@@O%#%%%#",
"  ..oo#o%#%#@#@#@%%%%%%%%+ oXoO@#@@#%@%%##%%+ .OXOoXO@#%#%#%",
"  .XOoX@@@@@@############+ oO@@@@@@######@#@  .XOoO@@#######",
",,OOOOOOOOOOOOOOOOOOOOOOO,,OOOOOOOOOOOOOOOOO,,OOOOOOOOOOOOOO",
"<<<<<<<<<<<<<<<<<<<<<<<<<<<<<<<<<<<<<<<<<<<<<<<<<<<<<<<<<<<<"
};
