/* XPM */
static char *result[] = {
/* columns rows colors chars-per-pixel */
"63 62 10 1 ",
"  c #403018",
". c #6C4824",
"X c #5C4020",
"o c #905C34",
"O c #28200C",
"+ c #543C1C",
"@ c #382C14",
"# c #483818",
"$ c #744C28",
"% c white",
/* pixels */
"  .............................................................",
"XXooooooooooooooooooooooooooooooooooooooooooooooooooooooooooooo",
"OO+++++++@+O@++++++++++++++@+O@++++@+O@++++++@+O@+++++++++++@+O",
"X ##.$$$$+oO+oX####$$#.#.##+oO+o$#$+oO+oX###X+oO+o#$##$#$#$$+oO",
"X ##.$$$X+oO+o.###+$$#.#.##+oO+o$#$+oO+o$X#X$+oO+o#$##$#$#$$+oO",
"X ##X$$$++oO+o$+##+$$#.#.##+oO+o.#$+oO+o$$X$$+oO+o#$##$#$#$$+oO",
"X +#+.$$++oO+o$+##X$.#.#.##+oO+o.#$+oO+o$$$$$+oO+o#$##$#$#$$+oO",
"XO.##X$X#+oO+o$X#+.$.#.#.##+oO+o.#$+oO+o$$$$$+oO+o#$##$#$#.$+oO",
"XO.#+#X+#+oO+o$.#X$$X#.#.##+oO+oX#$+oO+o$$$$$+oO+o#$##$#$#.$+oO",
"XO$+##+##+oO+o$$X.$$X#.#.##+oO+oX#$+oO+o$$$$$+oO+o#$##$#$#X$+oO",
"XO$+####++oO+o$$.$$$+#.#.##+oO+o##$+oO+o$$$$$+oO+o#$##$#$#X$+oO",
"XO.$###+$+oO+o$$.$$$+#.#.##+oO+o#X$+oO+o.$$$$+oO+o#$##$#$+#$+oO",
"XO.$+##+$+oO+o$$$$$.##.#.##+oO+o#X$+oO+o.$$$.+oO+o#$##$#$+#$+oO",
"XOX$$#+$$+oO+o$$$$$.##.#.##+oO+o#$$+oO+oX$$$.+oO+o#$##$#$+#$+oO",
"XO+$$$+$X+oO+o.$$$$.##.#.##+oO+oX$$+oO+o#.$.X+oO+o#$##$#$+#$+oO",
"XO#.$$X$++oO+o.$$$$X##.#.##+oO+oX$.+oO+o#X.X#+oO+o#$##$#$X#$+oO",
"XO#.$$$$++oO+oX$$$$X##.#.##+oO+o$$.+oO+o##X##+oO+o#$##$#$X#.+oO",
"X #X.$$$#+oO+oX$$$$+##.#.##+oO+o$$X+oO+o#####+oO+o#$##$#$.#.+oO",
"X #+.$$X#+oO+o+.$$$+#+.#.##+oO+o$.X+oO+o#####+oO+o#$##$#$.#.+oO",
"X ##X$$+#+oO+o+.$$.##+.#.##+oO+o$.#+oO+o#####+oO+o#$##$#$.#X+oO",
"X ##+$$+#+oO+o#X$$.##+.#.##+oO+o$X#+oO+oX###X+oO+o#$##$#$$#X+oO",
"X +#+X+##+oO+o#X$$X##X.#.##+oO+o.##+oO+o.X#X.+oO+o#$##$#.$##+oO",
"X +##+##++oO+o#+..X##X.#.##+oO+oX##+oO+o$.X.$+oO+o#$##$#.$+#+oO",
"X@+#####++oO+o#+XX+##XX#.##+oO+o###+oO+o$$.$$+oO+o#$##$#X$+#+oO",
"XO.#####.+oO+o##++###.+#.##+oO+o###+oO+o$$$$$+oO+o#$##$#X$X#+oO",
"XO.#####.+oO+o#######.+#.##+oO+o##++oO+o$$$$$+oO+o#$##$#+$X#+oO",
"XO.+###+X+oO+o######+$##.##+oO+o##++oO+o$$$$$+oO+o#$##$#+$.++oO",
"XOX+###+++oO+o######X$##.##+oO+o##X+oO+o.$$$$+oO+o#$##$#+$.++oO",
"XO+.###.++oO+o######X$##.##+oO+o##.+oO+o.$$$$+oO+o#$##$##$$X#oO",
"XO+.+##.#+oO+o######.$##.##+oO+o#+.+oO+oX$$$.+oO+o#$##$##$$X+oO",
"XO#X+#.X#+oO+o+#####.$##.##+oO+o#X$+oO+oX.$$.+oO+o#$##$##.$.+oO",
"XO#+.+.+#+oO+oX####+$.#+.##+oO+o+.$+oO+o#.$$X+oO+o#$##$##.$.+oO",
"XO#+.+.+#+oO+o.+###X$.#+.##+oO+oX$$+oO+o#X$.#+oO+o#$##$+#X$$+oO",
"XO##X.X##+oO+o$X##+X$X#X.##+oO+o.$$+oO+o##.X#+oO+o#$##$+#X$$+oO",
"XO##+X+##+oO+o$.+#+$$+#X.##+oO+o$$$+oO+o##X##+oO+o#$##$+#+$$+oO",
"X@###+###+oO+o$$X#X$$+#X.##+oO+o$$.+oO+o#####+oO+o#$##$+#+$$+oO",
"X #######+oO+o$$$X$$$##..##+oO+o$$.+oO+o#####+oO+o#$##$X#+$$+oO",
"X ######++oO+o$$$$$$.##..##+oO+o$$X+oO+o#####+oO+o#$##$X##.$+oO",
"X +#####++oO+o.$$$$$.##$.##+oO+o$.X+oO+oX####+oO+o#$##$.##.$+oO",
"XO+#####X+oO+o.$$$$$X##$.##+oO+o$.#+oO+oX####+oO+o#$##..##X$+oO",
"XO.+###+X+oO+oX$$$$$+##$X##+oO+o$X#+oO+o.X##X+oO+o#$##.$##X$+oO",
"XO.+###+.+oO+o+$$$$$###$X##+oO+o.X#+oO+o$X#XX+oO+o#$##X$+#+.+oO",
"XO.X+#+X.+oO+o#.$$$.##+$###+oO+o.##+oO+o$.XX.+oO+o#$##X$+#+.+oO",
"XO..+++.X+oO+o#X$$$X##X$###+oO+oX##+oO+o$$X.$+oO+o#$##+$+#+X+oO",
"XOX.X+X.++oO+o#+.$.+##.$###+oO+o###+oO+o$$.$$+oO+o#$##+$X##X+oO",
"XO+..X..++oO+o##+.X###.$###+oO+o##++oO+o$$$$$+oO+o#$##+$X+#++oO",
"XO+..X..#+oO+o###++###$.###+oO+o##++oO+o$$$$$+oO+o#$##+$.+#++oO",
"XO#.$$$.#+oO+o+######+$.###+oO+o##X+oO+o$$$$.+oO+o#$###$.+#++oO",
"XO#X$$$.#+oO+o+######X$X###+oO+o#+.+oO+o.$$$.+oO+o#$###.$X##+oO",
"XO#+.$$.#+oO+oX######.$X###+oO+o#X$+oO+o.$$$X+oO+o#$###.$X+#+oO",
"XO#+.$$X#+oO+o.+#####.$####+oO+o+.$+oO+oX$$$X+oO+o#$###X$.+#+oO",
"XO##X$.X#+oO+o$+####+$.####+oO+o.$$+oO+oX$$.++oO+o#$###X$.X#+oO",
"X@##+..+#+oO+o$X####X$.##X#+oO+o$$$+oO+o+.$.++oO+o#$+##+.$X++oO",
"X@##+.X+#+oO+o..+###.$X##X#+oO+o$$$+oO+o+.$X#+oO+o#$+##+X$.++oO",
"X ###XX##+oO+o.$+##+.$###.#+oO+o$$$+oO+o#X.+#+oO+o#$+###X$.++oO",
"X ###++##+oO+oX$.+#+$$###.#+oO+o$$$+oO+o#+X##+oO+o#$+###+.$++oO",
"X#+#####++oO+o#.$.+$$.###.#+oO+o$$$+oO+o##+##+oO+o#.X###+X$.+oO",
"X#+#####++oO+o#X$$$$$X###$#+oO+o$$.+oO+o#####+oO+o#..####X$.+oO",
"X#X#####.+oO+o##$$$$.###X$#+oO+o$$.+oO+o#####+oO+o#X.+###+..+oO",
"X#X+###+.+oO+o##X.$.X###.$#+oO+o$.X+oO+o#####+oO+o#X$+####XX+oO",
"X#.+###+.+oO+o###X.X####.$#+oO+o$.X+oO+o#####+oO+o##$+#####++oO",
"X#.X###+.+oO+o####X####.$$X+oO+o.X#+oO+o#####+oO+oX#$X######+oO"
};
