/* XPM */
static char *AdobeStock_485359491_Preview__1_1702305696[] = {
/* columns rows colors chars-per-pixel */
"100 100 45 1 ",
"  c black",
". c #010101",
"X c #020202",
"o c gray1",
"O c #090909",
"+ c gray4",
"@ c #0B0B0B",
"# c #0C0C0C",
"$ c gray5",
"% c #A2A2A2",
"& c #A4A4A4",
"* c #A7A7A7",
"= c gray66",
"- c #A9A9A9",
"; c #AAAAAA",
": c #B1B1B1",
"> c #B6B6B6",
", c #BBBBBB",
"< c #C1C1C1",
"1 c gray76",
"2 c gray77",
"3 c #D0D0D0",
"4 c gray85",
"5 c gray86",
"6 c gainsboro",
"7 c #DDDDDD",
"8 c gray87",
"9 c #DFDFDF",
"0 c gray88",
"q c #E1E1E1",
"w c #E2E2E2",
"e c gray89",
"r c #E4E4E4",
"t c gray90",
"y c #E6E6E6",
"u c #E7E7E7",
"i c gray91",
"p c #E9E9E9",
"a c #EAEAEA",
"s c gray92",
"d c gray93",
"f c gray99",
"g c #FDFDFD",
"h c #FEFEFE",
"j c white",
/* pixels */
"                                                                                                    ",
"                                                                                                    ",
"                                                                                                    ",
"                                                                                                    ",
"     o                                                                                              ",
"     @@@@@@@@@@@@@@@@@@@@@@@@@@@@@@@@@@@@@@@@@@@@@@@@@@@@@@@@@@@@@@@@@@@@@@@@@@@@@@@@@@@@@@@$$@     ",
"     @@@@@@@@@@@@@@@@@@@@@@@@@@@@@@@@@@@@@@@@@@@@@@@@@@@@@@@@@@@@@@@@@@@@@@@@@@@@@@@@@@@@@@@@@@     ",
"     $@@@@@@@@@@@@@@@@@@@@@@@@@@@@@@@@@@@@@@@@@@@@@@@@@@@@@@@@@@@@@@@@@@@@@@@@@@@@@@@@@@@@@@@@$     ",
"     @@@@@$@@@@@@@@@@@@@@@@@@@@@@@@@@@@@@@@@@@@@@@@@@@@@@@@@@@@@@@@@@@@@@@@@@@@@@@@@@@$@@@@@@@@     ",
"     @@@@@@$@@$@@@@@@@@@@@@@@@@@@@@@@@@@@@@@@@@@@@@@@@@@@@@@@@@@@@@@@@@@@@@@@@@@@@@@@$@@@@@@@@@     ",
"     @@@@@                                                                                @@@@@     ",
"     @@@@@                                                                                @@@@@     ",
"     @@@@@                                                                                $@@@@     ",
"     @@@$$                                                                                @@@@@     ",
"     @@@@@    jjjjjjjjjjjjjjjjjjjjjjjjjjjjjjjjjjjjjjjjjjjjjjjjjjjjjjjjjjjjjjjjjjjjjjjj    $@@@@     ",
"     @@@@@    jjjjjjjjjjjjjjjjjjjjjjjjjjjjjjjjjjjjjjjjjjjjjjjjjjjjjjjjjjjjjjjjjjjjjjjj    @$@@@     ",
"     @@@@@    jjjjjjjjjjjjjjjjjjjjjjjjjjjjjjjjjjjjjjjjjjjjjjjjjjjjjjjjjjjjjjjjjjjjjjjj    @@@@@     ",
"     @@@@@    jjjjjjjjjjjjjjjjjjjjjjjjjjjjjjjjjjjjjjjjjjjjjjjjjjjjjjjjjjjjjjjjjjjfjjjj    @@@@@     ",
"     @@@@@    jjjjttwtwtttttttttwtpttppptptttptppttttttttptttttpttttttttttttppppttjjjj    @@@@@     ",
"     @@@@@    jjjjtttwttttttwttttttpttttttwtpttptpttttttttttttttttpttpppptttttptttjjjj    @@@@@     ",
"     @@@@@    jjjjttttpttttttttppttpptttttwtpttttptptttttttpptttttpttpppttttttptptjjjj    @@@@@     ",
"     @@@@@    jjjjttttpttppttttppptptpptwttttptttttptptpttttptttpppptttttttttpptppjjjj    @@@@@     ",
"     @@@@@    jjjjttwtppttpttttpptttpttttttppttttttptpptpptpptttpppppttpptttttppptjjjj    @@@@@     ",
"     @@@@@    jjjjttpttttttttttppppttppttttttttttwtttptpptpttttttppttptpppptptptttjjjj    @@@@@     ",
"     @@@@@    jjjjtpppppttttttptptttptttttpttttptttttptptppptttpttttptttttptpttptpjjjj    @@@@@     ",
"     @@@@@    jjjjtptpttttwtwtttttpptppptpptttttptttptptttttttptttttttttttpptppptpjjjj    @@@@@     ",
"     @@@@@    jjjjttptpttwtwwtttptpttttttpppptttwwwtttttttttpppppttptttttpptppptppjjjj    @@@@@     ",
"     @@@@@    jjjjppttppttwttttptttpppttttpppttwwttppttpttttttppptpptttttpttppppptjjjj    @@@@@     ",
"     @@@@@    jjjjptptpptttttwttpttpttttttttpttwwtttttttttttpttttpttttttpptttpppttjjjj    @@@@@     ",
"     @@@@@    jjjjttttttwwwptttpttpptttptptptpttwtttttttwwtptpttptttttwpppttttttptjjjj    @@@@@     ",
"     @@@@@    jjjjttppttttttptpttttttttptttttttptttppptttttttpptpptwtwttppptptttptjjjj    @@@@@     ",
"     @@@@@    jjjjpttttwtptttppttpttwppttptttttptttpptptttttttpttttttwtpttpttpppptjjjj    @@@@@     ",
"     @@@@@    jjjjtpptwtppppptpptttttpppttpttwtppttttpptttttpppptptttppptttttttpptjjjj    @@@@@     ",
"     @@@@@    jjjjttpttttttttttttttttttpptttwtttptppttttttptttttpttwtttptppttttpppjjjj    @@@@@     ",
"     @@@@@    jjjjttttwwtttptpttttwtpttppptttttpttptttttttpppttpttttppptttpttwttppjjjj    @@@@@     ",
"     @@@@@    jjjjttttttptttttwtwttwttpttpttwtttttpttttttttttptpptttpttttpttttppptjjjj    @@@@@     ",
"     @@@@@    jjjjttptppppptttttttwttttptpwttpptpttttttttttttptttwtttppttttptptttpjjjj    @@@@@     ",
"     @@@@@    jjjjpppttwttpppttttpttttttpptttpttttttttttttttptttttttttttptttttttttjjjj    @@@@@     ",
"     @@@@@    jjjjttttpttttptttttpttttttttpttppttttttttttptttptppttptttptttttttpttjjjj    @@@@@     ",
"     @@@@@    jjjjtpptttppttttttttttpptpttptttttpttttpptttptptttpttppttppwttttppptjjjj    @@@@@     ",
"     @@@@@    jjjjppppttpttttttpttwttptptptttttttppttpptpptttptppwpppptttwttpttpppjjjj    @@@@@     ",
"     @@@@@    jjjjttttpttppttttptttpttttttttttttttttttppptptptppptttptttttppppttptjjjj    @@@@@     ",
"     @@@@@    jjjjtwttttptptptptppttppwttptptptptpptppptptttptttpppttpptttpttttpptjjjj    @@@@@     ",
"     @@@@@    jjjjttttttpttptttptttttttppptptttttttpttpttppttpttttptpppptpptwpptttjjjj    @@@@@     ",
"     @@@@@    jjjjttttpptttptptppttttwwtptppttttptpttptttptttpttpppptpptptptttppttjjjj    @@@@@     ",
"     @@@@@    jjjjptppptpttpptpptptwwtttpttpppppttttttpttttwtptttptttttpptttttttwwjjjj    @@@@@     ",
"     @@@@@    jjjjptptptttttttttttpttttpttptpttttttttpppptwtttttttwttttttttpppttttjjjj    @@@@@     ",
"     @@@@@    jjjjtptpttttttpttpttwtwtttptpptttwttptttttptwtptttptttppttppttppttttjjjj    @@@@@     ",
"     @@@@@    jjjjptpptttwtptptttwwwttttpttpwtwtppttptptpttttptpttpttpttpptttpttttjjjj    @@@@@     ",
"     @@@@@    jjjjttttttttpttppttttttppppttwtttwtpttttpttptppppppptttppttptpptttttjjjj    @@@@@     ",
"     @@@@@    jjjjtppptttpttttpptttttpttttptwttttppttpttwttttpttttttwtpttttptttpppjjjj    @@@@@     ",
"     @@@@@    jjjjtppwwtpptpttpttttttttttttttttttttttttttpptppttptwttppppttpttttptjjjj    @@@@@     ",
"     @@@@@    jjjjtttwttpttpttpttttttptppttttttttpptttttttpttpttttwtttppptttwwttttjjjj    @@@@@     ",
"     @@@@@    jjjjptpttttwptptpttttttttttwwwttppttpptptttttttttttwttpttttptttttttpjjjj    @@@@@     ",
"     @@@@@    jjjjttwttpttppttptttpptpppttwttpppppttppttpttttttttttttpptppttwptttpjjjj    @@@@@     ",
"     @@@@@    jjjjtttwwpwpttpptttttttptttttttpttptppttttppttptttttptptpttptttpppptjjjj    @@@@@     ",
"     @@@@@    jjjjtwtttpptttpttpptttttpttttppptppptpptttttttpttttptttptttptpppppttjjjj    @@@@@     ",
"     @@@@@    jjjjw3wptttttttppptppttttttptttttttttptpttpptppttwptptttttttttttttttjjjj    @@@@@     ",
"     @@@@@    jjjj5*wtwtttpttpptpptttppptttttttpptttptpppppppttttpttttttttptpttpppjjjj    @@@@@     ",
"     @@@@@    jjjj7-tptttppttttpptptttttpttttptttwtpttttttpttttppptttppptpttptptptjjjj    @@@@@     ",
"     @@@@@    jjjj7-pttpptptttttptttpptpttttttpttwtttptttpttptttpttpttptptttttttttjjjj    @@@@@     ",
"     @@@@@    jjjj7-tppttttwtpttttppptpttpptpptttttptppptpptpptpttttttttpptpptptttjjjj    @@@@@     ",
"     @@@@@    jjjj7-tttppttwttptpttttttttpptpttttttttpptptpppppttptptttttttttptpttjjjj    @@@@@     ",
"     @@@@@    jjjj7-ttttttwttpttpwtwwtpttpptpptwtwpptppptttttttttpppttwttppttppttpjjjj    @@@@@     ",
"     @@@@@    jjjj7-wtttwtttpttptttwwtttptpttttwttttptptttwtpttpttptttwtttttppttptjjjj    @@@@@     ",
"     @@@@@    jjjj7%wttptttptpttttttwtpttpptpptttttptptpwtttpttttttttwttpppttttttpjjjj    @@@@@     ",
"     @@@@@    jjjj7%tptttttttpppttttttttttptttttppptpttttttptppppttwttptppptptttwpjjjj    @@@@@     ",
"     @@@@@    jjjjw>tptwpttptttttwttttttpptttwtttttttptwwttttptpptttttttttptttwtttjjjj    @@@@@     ",
"     @@@@@    jjjjw,wtttptptttttttwtttpttpttwwtppttttpptttpptptpttwtttptptpptwttttjjjj    @@@@@     ",
"     @@@@@    jjjjw,tptpwtppptpttwwtpptppttwwttptptttttttttppttppttppppptpptttptppjjjj    @@@@@     ",
"     @@@@@    jjjj5-7wwpwtttptttwwtttppttptttptttttptttwwttptttttwttpptpttttwtptppjjjj    @@@@@     ",
"     @@@@@    jjjjp:wpttptttttttttptpptptppttttptpppttwttttttttttwtttptttttttttpptjjjj    @@@@@     ",
"     @@@@@    jjjjw-wttwtttttttttptptptttptppttttttttptttttttpptwtptppttttpwtptttpjjjj    @@@@@     ",
"     @@@@@    jjjj5%wptpttttttttttttttptptttpppttpptttwttppttppptttttttttttttpppwtjjjj    @@@@@     ",
"     @@@@@    jjjjw1tttptptttttwtttptttpptpppwtppttttttttppttppptppppttpttpttppttpjjjj    @@@@@     ",
"     @@@@@    jjjjw:ptpttppttptwttttptpptptttttttttwtttttptpttpptttttttttttppttptpjjjj    @@@@@     ",
"     @@@@@    jjjf5%7tpttptppttttwtttptttpttttptttptttpptptpttppptptptpttttpptttppjjjj    @@@@@     ",
"     @@@@@    jjjjw-wpptttttppwtptttpptwtppttpptwppttptpttpttttttttttptptttppptttpjjjj    @@@@@     ",
"     @@@@@    jjjj7-wppptttppttppttttptttppptpppppppppttttttttttttttpptpptttwtppttjjjj    @@@@@     ",
"     @@@@@    jjjj7%tptttpttppptttttttwtttttpttptttppttttptwttpptptpttttttptttpttwjjjj    @@@@@     ",
"     @@@@@    jjjjt2pptptttttppttttttttttttptttttttppppttttwtttttttttttttttppttttwjjjj    @@@@@     ",
"     @@@@$    jjjjpdwptttttttptptwttwwttttttptttttttttptttttttpptptttttttpttttttttjjjj    @@@@@     ",
"     @@@@@    jjjjjjjjjjjjjjjjjjjjjjjjjjjjjjjjjjjjjjjjjjjjjjjjjjjjjjjjjjjjjjjjjjjjjjjj    @@@@@     ",
"     @@@@$    jjjjjjjjjjjjjjjjjjjjjjjjjjjjjjjjjjjjjjjjjjjjjjjjjjjjjjjjjjjjjjjjjjjjjjjj    @@@@@     ",
"     @@@@@    jjjjjjjfjjjjjjjjjjjjjjjjjjjjjjjjjjjjjjjjjjjjjjjjjjjjjjjjjjjjjjjjjjjjjjjj    @@@@@     ",
"     @@@@@    jjjjjjjjjjjjjjjjjjjjjjjjjjjjjjjjjjjjjjjjjjjjjjjjjjjjjjjjjjjjjjjjjjfjjjjj    @@@@@     ",
"     @@@@@                                                                                @@@@@     ",
"     @@@@$                                                                                @@@@@     ",
"     $$@@@                                                                                @@@@@     ",
"     $@@@@                                                                                @@@@$     ",
"     @@@@$o@@@@@@@@@@@@@@@@@@@@@@@@@@@@@@@@@@@@@@@@@@@@@@@@@@@@@@@@@@@@@@@@@@@@@@@@@@@@@$@$@@@@     ",
"     @@@@@$@$@@@@@@@@@@@@@@@@@@@@@@@@@@@@@@@@@@@@@@@@@@@@@@@@@@@@@@@@@@@@@@@@@@@@@@@@@@@@@@@@@$     ",
"     $@@@@@@@@@@@@@@@@@@@@@@@@@@@@@@@@@@@@@@@@@@@@@@@@@@@@@@@@@@@@@@@@@@@@@@@@@@@@@@@@@@@@@@@@@     ",
"     @@@@@@@@$@@@@@@@@@@@@@@@@@@@@@@@@@@@@@@@@@@@@@@@@@@@@@@@@@@@@@@@@@@@@@@@@@@@@@@@@@@@@@@@@$     ",
"     @@@@$@@@@@@@@@@@@@@@@@@@@@@@@@@@@@@@@@@@@@@@@@@@@@@@@@@@@$$@@@@@@@@@@@@@@@@@@@@@@@@@@@@$@@     ",
"                                                                                                    ",
"                                                                                                    ",
"                                                                                                    ",
"                                                                                                    ",
"                                                                                                    "
};
