/* XPM */
static char *_6b88e83f5c447cf9c4e4b778b8aeadaLXbbceXxCK4Izxun[] = {
/* columns rows colors chars-per-pixel */
"64 64 256 2 ",
"   c #2E3030",
".  c #4A3832",
"X  c #78392B",
"o  c #653D38",
"O  c #773D36",
"+  c #752B20",
"@  c #7D3A1D",
"#  c #4B433B",
"$  c #57453C",
"%  c #42553F",
"&  c #7A442E",
"*  c #674A3C",
"=  c #7B4233",
"-  c #7D4B3C",
";  c #764639",
":  c #7A523B",
">  c #6B523B",
",  c #393A47",
"<  c #493E46",
"1  c #484648",
"2  c #574847",
"3  c #5B534B",
"4  c #544B53",
"5  c #5A5757",
"6  c #47525A",
"7  c #674947",
"8  c #7C4B43",
"9  c #744A46",
"0  c #685649",
"q  c #745445",
"w  c #7C5343",
"e  c #72554B",
"r  c #7B544C",
"t  c #7C5B4C",
"y  c #775A48",
"u  c #685855",
"i  c #7C5D52",
"p  c #755A56",
"a  c #664D51",
"s  c #5B6558",
"d  c #7D644D",
"f  c #77654D",
"g  c #696558",
"h  c #746454",
"j  c #7B6453",
"k  c #7D6B54",
"l  c #7B645A",
"z  c #736A5B",
"x  c #7C6B5C",
"c  c #726459",
"v  c #79725B",
"b  c #6B614A",
"n  c #595D66",
"m  c #6C5D62",
"M  c #5A686C",
"N  c #6A6767",
"B  c #786A64",
"V  c #7B7465",
"C  c #7A7871",
"Z  c #6C786D",
"A  c #873B1D",
"S  c #973F17",
"D  c #863B29",
"F  c #8C3D31",
"G  c #874729",
"H  c #994727",
"J  c #834333",
"K  c #844C3B",
"L  c #8C4C3C",
"P  c #884837",
"I  c #944A38",
"U  c #84533C",
"Y  c #8B523D",
"T  c #8D5A3E",
"R  c #875739",
"E  c #9C5C3B",
"W  c #955539",
"Q  c #95552E",
"!  c #A65838",
"~  c #B05936",
"^  c #AA5329",
"/  c #9B633C",
"(  c #8E673F",
")  c #A76239",
"_  c #B5653B",
"`  c #B3682E",
"'  c #A0511E",
"]  c #C05831",
"[  c #854C43",
"{  c #894D46",
"}  c #944E44",
"|  c #845444",
" . c #8B5444",
".. c #845A45",
"X. c #8B5B44",
"o. c #84534B",
"O. c #8C564B",
"+. c #845B4B",
"@. c #8B5C4B",
"#. c #945544",
"$. c #9B5444",
"%. c #935B45",
"&. c #9B5B43",
"*. c #935C4B",
"=. c #9B5C4B",
"-. c #97554C",
";. c #835C53",
":. c #8C5D52",
">. c #885754",
",. c #945C52",
"<. c #9A5D53",
"1. c #945854",
"2. c #A85B47",
"3. c #A85C56",
"4. c #AA4F43",
"5. c #84634D",
"6. c #8C634D",
"7. c #856A4E",
"8. c #896648",
"9. c #996345",
"0. c #93634C",
"q. c #9B634C",
"w. c #9D6C4C",
"e. c #966747",
"r. c #99724C",
"t. c #836453",
"y. c #8B6453",
"u. c #856B55",
"i. c #8C6A54",
"p. c #84635A",
"a. c #8C645B",
"s. c #836C5B",
"d. c #8C6C5B",
"f. c #936453",
"g. c #9B6454",
"h. c #936B54",
"j. c #9B6C54",
"k. c #93645A",
"l. c #9A635B",
"z. c #936C5B",
"x. c #9B6C5B",
"c. c #8C7255",
"v. c #85725C",
"b. c #8D745C",
"n. c #8A7859",
"m. c #937254",
"M. c #9B7455",
"N. c #94735C",
"B. c #9B735C",
"V. c #947B5D",
"C. c #9B7A5C",
"Z. c #9B7A54",
"A. c #8F714D",
"S. c #A3644C",
"D. c #A36A4C",
"F. c #A76746",
"G. c #B66847",
"H. c #A87349",
"J. c #A36553",
"K. c #A46B53",
"L. c #A36C5C",
"P. c #A96758",
"I. c #B46C58",
"U. c #A37455",
"Y. c #A2745C",
"T. c #A47B5C",
"R. c #A97757",
"E. c #B47558",
"W. c #B2734C",
"Q. c #856C63",
"!. c #8B6C62",
"~. c #856A68",
"^. c #946D63",
"/. c #9B6D62",
"(. c #956865",
"). c #847463",
"_. c #8C7364",
"`. c #8D7A63",
"'. c #8C7569",
"]. c #847B6C",
"[. c #8D7B6C",
"{. c #847866",
"}. c #947463",
"|. c #9B7463",
" X c #947B64",
".X c #9B7B64",
"XX c #937369",
"oX c #937C6B",
"OX c #9C7C6B",
"+X c #9C746A",
"@X c #837D71",
"#X c #8B7B74",
"$X c #9C7C72",
"%X c #957B74",
"&X c #996F70",
"*X c #A46D63",
"=X c #A37463",
"-X c #AB7463",
";X c #A37B63",
":X c #AA7B63",
">X c #A37C6B",
",X c #A8796B",
"<X c #B37667",
"1X c #A77B73",
"2X c #BB7674",
"3X c #BB6C67",
"4X c #C47251",
"5X c #C47867",
"6X c #99815D",
"7X c #A8825C",
"8X c #BA825B",
"9X c #8B836A",
"0X c #938164",
"qX c #9B8265",
"wX c #94826C",
"eX c #9B836B",
"rX c #9A896C",
"tX c #8B8373",
"yX c #89867B",
"uX c #948372",
"iX c #9C8373",
"pX c #9C8A73",
"aX c #988979",
"sX c #9C9276",
"dX c #A38265",
"fX c #AB8364",
"gX c #A4836C",
"hX c #AC836C",
"jX c #A38A6D",
"kX c #AA8A69",
"lX c #B48668",
"zX c #A7916E",
"xX c #A38473",
"cX c #A38B73",
"vX c #AC8B72",
"bX c #A78979",
"nX c #B28B73",
"mX c #B68978",
"MX c #AB937B",
"NX c #A79379",
"BX c #B5967A",
"VX c #B6906C",
"CX c #BBA37D",
"ZX c #C28D73",
"AX c #B77D89",
"SX c #7C9091",
"DX c #9A9286",
"FX c #8A9091",
"GX c #A78D82",
"HX c #AC9483",
"JX c #A99885",
"KX c #B59A86",
"LX c #B78F85",
"PX c #B3A792",
"IX c #98AEAC",
"UX c #C2A893",
/* pixels */
"nXE.=X<XvXFXFXZXmXVXlXMXtXJXj.-XP.B.MXNXhXU.C.E.dXV.V.=.h.f.y.:.o.[ | z.y.XX|.h.y.y.z.y.z.N.z.5.|.=X.X0XC.C.M.:X.XN. XN.B.dXV.C.",
"nXG.E.4XvXM FXE.I.G.W.).N bXI 2.$.*Xi ;.E._ 4XG.uXe $X-.-.<.g.0.| +.K 5.[ f. .= = K 7...f.L J & 5.X.P U.W &.&.D.#.L q.I I I 9.E ",
"KXUXKXUXUXHXKXKXPXJXMXMXaXGXMXHXxXgXjXjXlXBXOXdXjXhXBXdX.XvX.XV.cX X}.0Xl. Xd.}.}.}. Xd.}.z.}.|..XY.Y.Y.g.-Xh.fXL.q.U.q.S.&.R.R.",
"~ fXI.lXE.G.~ G.,X:.<XP.I.L.NXFXDXI.F.&.=.>Xt.dX~ ~ ! H.R.2.f.L./.; :.o.[ o.r +.@.f.{  .%.z...6.B.O.w [ N.X.y.y.| w U V.I.T.h.0.",
"nXMXLXUXGXMXZXZXMXxXmXOX>X=XHXIXPXB.L.L.7.b./.h.8.w.w.M.dXL.0XjX}.z..Xy.O.8 ; a.g.6.U ..K j.h.u.h.K - K f.P *.K O ; = h.P.x.K X ",
"bXnX<XOXJXZXmXKX5XhXOXvXeXvXlXlX:XxX@XyX$XB.=X=X>XL.|.f.@. .x.x.X.U Y j.&.U.Y.B.y.z.N.z.|.j.h.x.B. XN.`.s.s.z..XB.h.C.B.B.T.dXY.",
"mXI.I.D.BX2XAXlX) 9.;X%X5 _.K.2.&.mXg C E.~ S.J.<XP.h.K @.- <.x.J L L *.I 9.%.- K L S.2.q.L I F -.*.O p.7 * O +.#.J 6.X X X U #.",
"sXMXGXGXCXBXmXVXKXbXLXmX|.xXMXiXHXzXfXmXdX[.tXgXjXn.0X=X.X Xb.0X.X}.eX.X;Xj.z.z.i.z.h.8.B.M.z.m.M.h.f..Xt.+.@..XB.@.OX+.:.w 5.B.",
"w .Xu gX_ S.f.R.V n 2X3.3.5X,XB iXF.~ ~ G.N 6 dX2.2.=.7.K.j.:.; +.X X...=.#.%.q.T %.J K K U =.T 7.8 o.; *.=.q..X0.q.x.:Xq.q.N.w ",
"aXNXwXpXr.qXaXBXaXC LX<X1X<XMXs.GXK.8.i.;XyXZ wX7.!.x  X;XN.b.+.;XL.z.6.x.g.h.B.X.*.X.*.*.g.*.X.z.o.9 8 f.g.9.K.Y L 0.;X*.$. .X ",
"W.:XbXaXNXH.fXnXZX:XC.rX0XBXE.4XE.}.FXFXaXgX1X/.[.@XB @.| - 5.K.#.#.q.L.L.:XB.z.;.z.OXf.c.z.5.z.x. Xc }..XM.z.=X=Xx.>X.Xj.C..X}.",
"E.Y.;X.XvXP.mXz.@.9.f..XJ.,XK.F./ _.SXFXbXj.q.g.iXg B | ; ; @.0.X.T X.h.P.;XO. .O.O.x.K X. .K [ K t * 5.L K J L h.@.x.F P K #.z.",
"ZXnXpXBXnXgXnXiXMX7XGXOXlX.Xd.oXwXiXeXC.fXsX XV.jXV.jX.XV. Xz.b.j.0.j.j.j.z.7.f.i.i.N.d.a.V..XC.x.i.y.N.j.z.Y.;XvXeXgX;XdX;X:X.X",
"! U.r cXK.0.&.=XE.! B.$.E &.B.+.+.z.$.H &.eXf.x.$.T $.g.*.0.O.| =.I #.I & X x.=.*.f.O w 8 f. .X.g.L -.P %.L *.X.J  .#.Y.*.J.C.*.",
"XXnXxXJXhXdXvXvX7X9.6Xi.7.7.wXcXjXhXeXxX>XcXv.}.d.u.y.z.dXgX.XdXqX;XC.M.M.x.gXx.h.B.+.5.+.z.@.B.b...7...B.L.x.0.h.g.*.B.=.P.h.J ",
"L.D.wXm xXE.T.Z.K.B.T.eX^.`.1XdXd.Y. X'.uXOXd.).{.u x 6.6.y.i.j.9.$.$.M.*.|.|.d.z.@..XB.b.N.^.^.z.x.L.B.gXcX>XhXvX-XcX.X=XN.;XbX",
"R.B.tX_.JXx.dXA.d @.X. Xk.`.y.d p k d.N.d.s.b.!.Q.z `.f.oXl.7.0...X.6.M.$.f.d.a...[ z.y.i.@.:.>.+.|.@.h.-. .[ *.x.[ g.#.J J #.j.",
"dXVXZXvXfXjXeX`.C.R.qXpXaXiXwX).Q.V.>XgX.XpX XXX X X|.eX}.t.+.y.i.6.6.Y.=Xb.`.l.i.y.z.N.u.z.i.}.b.OX.X}.b.i.;XB.i..XgX}. Xb.=X;X",
"W <X2.F.~ Y.m 5 9.F.|.+.+.-.jX&Xd.;XP.x.f.z.5.N.;.o.1.u.- : I X Y $.g.$.*.6.N.I 0.@.} .. .-X6.}.^.l.,.L.|.0.K.P.J.J.x.^.j ).+.X.",
";XMXjXC.7XvXiXn.R.zXHXwXqXwXrX.X`.wXN.0XeX Xd.b.c.:.`.`.7.5.5.d.b.>XeXuXiX_.).b.z..Xx.N.B..Xi.i.t.d.d.z.v.N.z.Y.x.0.B..Xt oX+.: ",
"L.S.eXN @XW.` ` ~ kXg.f.|.@X5 {.x.|.|.bX}.y.z.d i.+.wXxX>X|.oX_.6.h.6.b.y.>X=Xz.d.a.b.i.}.d.y.f.i.d.d. Xa.d.z.|.|.x.hX:X:XvXvXjX",
"vXhXqXN  X_ _ ) ) lXh.a.s.C 4 '.X.k.i.pX XoXoXk  Xy {.xX;XN.rXv.u.d.:.XX^.iXp.p.:.|  XO.z.k.K K O.x.| f.*.l.,.o.f.*.Y.<X<Xx.j. X",
"@XsX8XfX7X7XDXz `.;X}.XX7X7Xm.Z.n.wXN.V. XrX+XhXT.T.U.m.N.'.oX[.pXb..X.XB.B.N. Xy.}. Xy.y.d.N.6.u.b.t  X}. Xs. XeX.XjXvX;XdXhXjX",
"u [.G.! ^ ] !.4 s.Q | w _ ^ ` ~ h.:.=.K @.k e m.& : W X. X+X:.x.1Xk.>X@.*.I g.qXg.N. .| O | ..: k.| f.,.5.z.z.B.-  . .z.y.q -XL.",
"MXBXnXqXkXlXjXC..XZ.m.m.R.R.dX:XdXN.z.k jXaX).B.m.).b.h.eXOXeXJXbXpXgX.X`.N.N.OXN.V.y.d.p.s.;.t.b.l.6.+.6.m.z.h.X.6.y.|.6....X-X",
"l.f.DXn aXI.! ! 2.D.) ! e.T.*.W.) Q R R.E.&.q.Q ).% [.g.k.t d.a.r o.-.eX@.i.B.q.#.U B.*. X| X.%.8.B.6..XO.y.k.|.:Xi.dX=Xg.=X|.dX",
"aXV.bXC bXI.F./ ..j.R.w.U.vXN.Z./ U.A.Z.8.U 8.e.%Xz iXgX X Xv.oXf.f.z.0Xt.k 5.: K - z.X.u.- ; & O.z.y.B.L X. .g.*.& h.-.P.g.L.u.",
"/.MXoXaXqXbX@XN .XE.lXU.lX,XE.xXiXxXKX<X;X1XxX].tXbX/.eXz.*XN.iXbXL.pXb.N.*X=X Xt u.h.y.t.oX>X XxXM. XN.;XeX XwXx.i.eXhX;XN.hXcX",
"y.xXp.i | z.g 5 F.` ` ^ W.=.~ I.>X;..X$.3.<.,Xa u 1Xo._.@.1.;.(._.+. X}  .I *.;XK 6.F = X | } J /.X | X *.f.J :.O - [ x.f.K 0.%.",
"%XNXpXtXNXkXjXxXPXaXBXBXvX X=XV.cXeXqXi.N.|.xXoXOXcX>XKXcXcXJXMXMXcXbX,XwXxX>X Xx..Xi.7.u.d.B.M.oXp./.5.j.V.T M.a.l.,.|.j.Y Y.*.",
"p XX~.u :XG.P.<.+X4 #X2X<.9.I.C.y i.-X<X*XhXN.;.x.*.-.{ L.=.L.L.=.2.3.eXj XX*X1.#. .|.| OX:.=.#.$.hX$.Y.g.@./.t..XB.=XhX*.K.K.fX",
"gX|.$Xv jXE.:Xh.NXOXJXmX>XqX:XKX%XjX<Xl.P.-XOX!.XXz.(.Q..X|.|.<X-X=X<.OXy.a.@.-.P Y Y.L z.J.L P -.b.J J. .D 8 X *.Y U J.G I H X.",
"C fXS.K.D.dXC #XdXE.4XF.eX+XmX1X`.OXNXeXu.wX.Xj.8.;Xc.XX1X}.N.XX.XK.wX|.OXV.M.^.p. XeX^.x.;XeX+XgX=XC.C.b.|.z.|.R.}.Y.7XN.}.z.eX",
"M R.! ! ^ :XB B j.2.! 9.XX9 z.5.>.r ~.B e ^.O.{ F :.o +.>.>.9 8 5.D *.T X G T t.9 ^.- X + K t.7 j G H H Y t.; j.S G G & j.P 0.T ",
"gXR.dX#XjXmXGXzXvX>XT.j.xXXXeXrX}.OXiXaXpXcXb.z.M.OXb.dXvX+Xu.[.eXM.dXy.t.5.8.V.d.$Xz.6.@.y.XXi z.@.@.+.w z.@..X8.T %.f.dX&.B.0.",
"4.4.%XM XXl.,.<.^.# x ,.O.| f.Q.0 xX*.P.j.z.z.@.r.W ! W 9.E 9.z.o.Y *.f.K &.x.,.P - g.U q.*.%.#.@..X&.Y.F.E E F.T./ S.Q.p.z.x.;X",
"w.Z.NXaXqX7X:Xh.y.x oXx.z.j.Y.xX].cXX.%.X.y.N.N.7Xe.E ( A.e.w.d.<. .O.z.W 2.=Xo.W L j.R w.9.I ! =.U.I S.! H Q H D.! S.q o ; = j.",
"B }.Q.!.&XOXC l T.I.U.v.c [.d eX.XOXoX`.NXeX XOXBX[.`.N.OXxXbXDXaXMX;X$XbXNX_.rXoXoX>XB.T.:XmXoXNXkXT.nXlXjXOXR.fXw.D.N.b.|.gX:X",
"N ).q >.o.XXl 0 ;X2.3.j a ~.* q K XXp p !.o.o.8 t.. j O.; 8 p.0 1 *XI X.| a.o j # 0 O.P J [ p.  e Q ' ^ ! y * D.' ' H S.q q M.E ",
"NXhXdX).dXT.M.qXdXlXC.dX.XdX0X}.}..Xb. X}.t.j s. Xv pX>X}.N.dX).oXzX:X^.w.jXiXeXm.kX7Xe.A.T.dXc .X4XH.H.8XC.f w.) F.W R.u.k B.T ",
"8 ,.s.3 T ~ E t p w.1.g.<.+X5 ~.!.p 0 u v.5 XXW.S.2.w.n.0 :XP.L.2.z.h u  Xg.j.r b.y.5.B p D.W E ! U.h i E.) F._ fXc V <X*Xb.f.>X",
"..x.eXg V.R.nX{.k BX;X;XH..Xg v oXp d u.k a C._ ) G.E.N.d vXL.) q.d.V l  Xq i.8. X6.( j t H.W ) ! 7Xf e S.H H H w.1 3 &.J J F M.",
"B iX<X2X<X:XOXN iXQ. XN B N.6.6.e.xXV tXfXY..XR.jX@XxXL.|.N.>Xx ~.fX:X;X:XdX).[.xX+X=X,XaXv dXx cX7XU.|.C.6X0XeXnX>X.X7.A.w.T Z.",
"M oX3.I.S.,.s.2 t.* y 6 6 8.W W G z.4 B / Q #.L B 6 j A H @ *.4 1 T A G A %.2 5 X.J D H p.# d   p G A D A i   p E L 3.K.c 1 q > ",
"`.:XlXNXcXjXsXjXbXaXjXgXLXlX;XpXhXbXJXMXb.V..XjXKXwXcXM.0.e.m.s.tX6Xy 8.9.C.@X{.6XM.r.9..X{.;Xs..XT y.@.Q OX3 c.9.T $.K.h 1 f y ",
"*.O.|.5 , ].n uXp u hX<X3X5X$X1 V eX:...+.xXuXhX#.S.J.>XN B V.<.x.e.'.B _.%.P W L 9.g g D.E ! F.F.j B B./ D.w.R.].0 qXz.h.M.qX X",
";XXXBXZ s tXn tXk s.nX=X=XP.OX3 c B.+.5.@.N.g m.Y 9.T j.3 5 .X| X.Y i.4 c %.G L D &.5 g W.H Q G w.x 0 fXF.^ H w.~., [.K [ P | xX",
"l sX1X<X=X:X[._.B.gX,XzX`.`.[.+XoXNXMXqXcXcX|.qXgX6X[.MX XoXwX.XpXbXjXb.V..XjX].b.vXhXcXqXjXOXC.NXbX.XjXNXjXvXVXHXV.lXm.dXT.6XvX",
"r M.R } U g.i O g.$.>.[.$ h 6.[ : r z.e +X9. .w 5.g 2 k.| ; 9 i.e 0 z.f.,.o.'.2 h t O I L y.q d F.{ O.T -X0 v.+.- & P !.5 v.E.J.",
"B.vX`.1XbXbX`.k `.oXeXHX{.sXN.a._.z.`.b  XM.Y. XjXV V cX5.z.y.cXv ). XU i.7.V.h XXN.5.z.y.N.i.}.j.T 0.5.c.q u.i.K *.Y 5.1 j D.T ",
"T 0.0X8.dXB.T 9.oX3 jX5X2X<X2X Xg OX=Xx.i.N.hXOXpX_.$X`.`.b. X9XoX%X).b.v.v.h.+.k.h.c.b f j.j..X}.T..Xd.U.e./.L.U.v.qXfX%XiXC.C.",
"#.,.Z.r.7XX.W 2.z.2 _.<X<.g.*Xj   d.<.=.:.y.5.> u.; ; o e * y ;.8 9 $ l u j O.; 9 - q   $ [ J ; = 0.0 * ) W -.I / $ q P J = - 6.",
"gX%X[.eXoXiXuX}.V.oXOXfXqXuXeXwX%X.XN.V.b.dX7Xi. Xb.u.{.tXk  X^.i.x ).[.~.!.s.l k y.s.c z !.5.7.h.qXv.`.vX:XU.H.Z.i.xXi.w +.@.}.",
"s.# a ;.; :.3 , p.(.>.>.!.u k ~.>.:.q _.h _.XX(.:.@. X2 z +X/./..X).'.z 2 2 # u g 5 4 4 < 1 g c B c.W =.+.*.I 8.- K K w k k |.L.",
"aX{.tX^.6.h.B 4 |.x.N..XN.i.T. Xy.x.y.xXf n.b.a.^.^.[.g #X$Xz.z.+XQ._.'.2 0 * p V g u 1 4 1 u 2 u d W S.X.q.I y.=  .; o.e . t.$.",
"*X:XcX+XOXiXoXeX@X%XhX1X^..X>X'.eX!.d.~.#XsXV #X9Xk s.s.OXv.9X.X XOX`..Xu.).N.!.d.B.V.u B !.d.!.N.dXv.[..Xm.6.;XV.t !.XXt.k d.j.",
"+.y.s.(.>.t.:.x n ~.3XP.l.,.p . d i q 9 r Q.4 m h o 7 7 b $ 0 r ; o.o.:.;  .o.8 w = w . B x.[ o.*.z.$ 9 { D J I U o 2 e - K = o.",
"oXcX`.`._.b. XGXuXMXlXm.}.|.jXoXbXbXoXuXwXwX#X].oXs.B B $X'.OX;.i.d.}.}.u.u.N.i.u.j `.l iXN.t.s.!.OXx p.z.| +.@.5.> 0 i.- w : ..",
"r a.O.p.i !.g a z.y.y.j a '.d.;.s.p.oXh wXjX/.=XB.pX{.9XL.6...N.#XV tXu p u p ).9 l +.| %.J.OXs.oXN.h.h.6.u.* t.i.y.w 5.s.a q U ",
"y k w q q ^.h a j.f.@.i 2 l e r +.t d.0 oXz.,.=.:.`.$ _.>.: e i ].v 9X0 p a 0 V 9 e @.= K Y l 7 p +.[ O.[ p.. 7 [ [ [ ; e . * J ",
".XwXuXuX'.Q.).z s._.b.dX|.XX_.h  X_.}.xXiX`.#XuXaXpXtXpXiX`.{.XX X;X.XoXQ.p _.c.d.XXh.).x B._.~.u.z.XX!.N.V._.u.z.d.u.d.d.t.u.dX",
"L z.l 7 B 2 o . 3 3 0 z.l.(.a.2 j * & $.{ i.a m g u u 0 B 0 h (.J.3.-.+X0 0 p.- ; ; ..g s b.9 9 q j u # v.w ;.:.+.l . q *.-. .0.",
"M.xX[.j _.h e * x B x z.l.^.a.d.0Xd...f...V.p p v.e k j t.d y.=XL.<.<.OXf x d.O.@.+.y V B oXs.p.j t.s.h .Xx.y.f.+.l $ j y.O.:.| ",
"b.^.XXXX}.B 3 {.u.!.'.s.x g oX;XM.f.j.}.f u.}.B.N.+Xb.c N.u.7.5.b.`.j oXd.b.s.p.6.t t.:.a._.[.v.c a.N.+XB.=XOXv.d d.z.x.N.`.k  X"
};
