/* XPM */
static char *_690b265d22047d6fc41f60745c3b74aVJhPAC2FEZJFj6nK[] = {
/* columns rows colors chars-per-pixel */
"64 64 132 2 ",
"   c gray80",
".  c #CDCDCD",
"X  c #CECECE",
"o  c gray81",
"O  c #D0D0D0",
"+  c gray82",
"@  c #D0D1D3",
"#  c #D2D2D2",
"$  c LightGray",
"%  c #D2D4D3",
"&  c #D1D2D4",
"*  c #D2D3D5",
"=  c #D3D5D4",
"-  c #D2D6D5",
";  c #D3D4D6",
":  c #D3D7D6",
">  c gray83",
",  c #D5D5D5",
"<  c #D4D6D5",
"1  c #D4D5D7",
"2  c #D5D5D7",
"3  c #D5D7D6",
"4  c gray84",
"5  c #D7D7D7",
"6  c #D4D8D7",
"7  c #D6D8D7",
"8  c #D8D8D6",
"9  c #D9D9D7",
"0  c #D8DAD7",
"q  c #D4D5D9",
"w  c #D5D6D8",
"e  c #D6D7D9",
"r  c #D7D7D9",
"t  c #D5D6DA",
"y  c #D6D7DB",
"u  c #D5D9D8",
"i  c #D7D9D8",
"p  c #D6DAD9",
"a  c #D7D8DA",
"s  c #D7DBDA",
"d  c #D7D8DC",
"f  c #D8D8D8",
"g  c gray85",
"h  c #DAD8D9",
"j  c #D9DBD8",
"k  c #D8DAD9",
"l  c #DADAD8",
"z  c #DBDBD9",
"x  c #D8D8DA",
"c  c #D8D9DB",
"v  c #D9D9DB",
"b  c #DBD9DA",
"n  c #D9DBDA",
"m  c #DADADA",
"M  c gray86",
"N  c #DCDADB",
"B  c #DADCD9",
"V  c #D8DCDB",
"C  c #DBDDDA",
"Z  c #DADCDB",
"A  c #DCDCDA",
"S  c #DDDDDB",
"D  c #DCDEDB",
"F  c #D8D9DD",
"G  c #D9DADC",
"H  c #DADADC",
"J  c #DADBDD",
"K  c #DBDBDD",
"L  c #D9DADE",
"P  c #DADBDF",
"I  c #DDDBDC",
"U  c #D9DDDC",
"Y  c #DBDDDC",
"T  c #DADEDD",
"R  c #D9DDDE",
"E  c #DBDCDE",
"W  c #DBDFDE",
"Q  c gainsboro",
"!  c #DDDDDD",
"~  c #DEDCDD",
"^  c #DDDFDC",
"/  c #DCDEDD",
"(  c #DEDEDC",
")  c #DFDFDD",
"_  c #DCDCDE",
"`  c #DCDDDF",
"'  c #DDDDDF",
"]  c #DFDDDE",
"[  c #DDDFDE",
"{  c gray87",
"}  c #DFDFDF",
"|  c #E0DEDF",
" . c #DEE0DD",
".. c #DCE0DF",
"X. c #DFE1DE",
"o. c #DEE0DF",
"O. c #E0E0DE",
"+. c #E1E1DF",
"@. c #DBDCE0",
"#. c #DCDDE1",
"$. c #DDDEE0",
"%. c #DEDEE0",
"&. c #DEDFE1",
"*. c #DFDFE1",
"=. c #E1DFE0",
"-. c #DFE1E0",
";. c #DFE0E2",
":. c gray88",
">. c #E1E1E1",
",. c #E0E2E1",
"<. c #E2E2E0",
"1. c #E3E3E1",
"2. c #E0E0E2",
"3. c #E0E1E3",
"4. c #E1E1E3",
"5. c #E1E3E2",
"6. c #E2E2E2",
"7. c gray89",
"8. c #E3E5E2",
"9. c #E2E4E3",
"0. c #E4E4E2",
"q. c #E5E5E3",
"w. c #E1E2E4",
"e. c #E2E2E4",
"r. c #E3E3E5",
"t. c #E3E5E4",
"y. c #E4E4E4",
"u. c #E4E4E6",
"i. c #E5E5E7",
"p. c #E6E6E8",
"a. c #E7E7E9",
"s. c #E8E8EA",
/* pixels */
"G G G G G G G E ` $.` G G $.E e a c E ` ` C c c 7 C ` 3.3.3.o.` $.` ` $.;.$.` G * * + * 1 a c G c 1 + 1 9 5 +   1 1 + + o     o ",
"G G G G G E E E G ` E G E $.E e E ` ` ` ` c 7 1 1 7 C ` ;.;.o.` $.$.` ` $.` G a * * * * e a c c 1 1 1 1 c 5 1 O 1 1 + +         ",
"G G G G E E E E a G G G E $.E e ` ` o.o.` C a 1 1 1 a C C ` ` ` $.$.E G G c e : * * * 1 a c c e 1 1 1 c c 1 1 1 1 + +           ",
"G G G G E ` ` ` e c G E E E G e c c E ` ` o.` ` 7 7 a a c C E E ` G c c c a e : : : 1 e G G a e + 1 1 c 1 1 1 1 1 + +           ",
"G G G E E ` $.$.G G E ` E c e e 7 c C ` o.;.;.;.C c c 7 7 7 c c G a e e a a a 1 e e e c G G c e + = 1 1 1 1 1 9 1 1 + + +   + + ",
"G G G E ` $.$.$.` E E ` G e e G E C ` o.` o.o.` ` C C c 7 7 a a c e e e c c c c c a a c G G c a 1 1 1 1 1 1 1 1 1 1 1 + + + + + ",
"G G G E ` $.$.$.$.E E ` G e c $.o.o.o.o.` ` ` ` ` ` ` C C C c a c a 7 7 c C E E E c a a c C c c 9 1 1 1 5 c 5 1 1 1 1 + + + $ + ",
"G G G E ` $.$.;.$.G G ` G a G w.o.` ` o.` o.o.o.` ` ` ` ` E C c C c a a c E E E ` C c a c c c c c 1 = 1 c z 9 1 1 1 + + + + $ = ",
"G G G E ` $.$.$.$.$.` ` ` ` $.$.` ` o.o.o.o.o.o.;.o.` ` ` ` o.;.C C ` ` ` ` ` o.` C C C E E c a 1 5 9 c c 9 1 1 1 1 1 + + + + $ ",
"G G G E ` $.$.$.$.$.` ` ` ` $.$.` o.o.o.o.o.o.o.;.o.` ` ` ` o.;.C ` ` o.o.o.o.o.` C C C ` ` E c 1 1 9 9 9 9 1 1 1 1 1 + + + + $ ",
"` E G G E ` $.$.$.$.$.` ` $.$.$.o.o.;.;.;.;.o.o.;.o.o.` o.o.o.o.S S o.o.o.o.o.o.S C C S ` o.S C c c c 5 5 9 9 c 5 1 1 + + + + + ",
"$.` G G G ` $.;.$.$.$.$.$.$.$.$.o.o.;.3.3.;.o.o.o.o.o.o.o.o.o.o.o.o.o.o.o.o.o.o.C C C C S o.` C c c c 5 5 9 c c 5 1 1 $ + + + + ",
"` E G G E ` $.$.$.$.$.$.$.$.$.$.o.;.3.3.3.3.;.o.o.o.o.;.o.;.o.o.o.o.o.o.o.o.o.o.c c c C S S C C c c 9 5 5 9 c c 5 1 1 + $ $ + 1 ",
"G G G E ` $.$.$.;.$.$.$.$.$.$.;.3.3.3.3.3.3.3.3.o.o.o.3.3.;.;.o.o.o.o.o.o.o.` S C c c C C S C 9 c c c 9 9 c c c c 1 1 1 + $ 1 1 ",
"e a G $.$.;.;.$.;.;.$.$.$.$.;.;.3.3.3.9.3.3.3.3.o.o.3.3.3.3.;.o.S o.o.o.o.` S C S C C C S S C 9 c c c c c c c c c 1 1 = $ $ = 1 ",
"1 e G $.3.3.;.$.;.;.$.$.$.$.;.;.3.3.3.9.9.3.3.3.o.o.3.3.3.3.;.o.S S S ` ` S C C S S S S ` S C c 9 c c c c c c c c 1 1 = $ $ 1 1 ",
";.E c C o.9.o.` ` o.o.;.o.o.` ` q.q.q.9.3.+.3.3.` S c 9 c S +.q.S S | ` ` ` S z 9 c c c S S S c c c z z z c c c c 1 + 1 + + + 1 ",
"` E c C o.o.o.` o.o.o.o.o.o.o.o.3.3.3.9.+.3.3.+.+.` S z S S ` +.S S S ` S S S S c c c S S S S S c z z z z c c c c 1 1 1 1 + + 1 ",
"C C E ` o.` o.o.;.;.o.` ` o.o.3.+.+.+.+.+.+.+.+.+.+.| S S ` ` ` S S S S S S S S c c S S S S S S c c z z z c c c 9 1 1 c c 1 $ 1 ",
"c C ` ` ` ` o.;.o.` ` E E ` o.3.+.+.+.+.+.+.+.+.` ` +.+.` ` ` ` +.| S S S S ` ` S S S S S S S S c c z z z c c c 1 = 1 c c 1 $ 1 ",
"7 c ` ` ` ` ` ;.` ` C C C ` o.o.+.+.+.+.+.+.+.+.S ` +.+.+.+.+.| 3.+.` ` S S ` +.S S S S S S S S c c c z z c c c = + 1 c c 1 + + ",
"7 c C ` ` o.` ` ` E E C E ` o.o.+.+.+.+.+.+.3.3.` ` +.+.+.+.+.+.+.+.` ` S ` ` ` S S S S S S c c c c z z z c c c = $ = 5 1 + + + ",
"a a a E ;.3.o.C ` ` ` ` o.;.;.3.+.3.3.3.1.1.1.3.+.+.+.+.+.+.+.+.` ` S ` S S S S S S S S S c c c c S z S z c c c 1 1 1 c 1 + + $ ",
"c 7 7 C 3.9.o.C ` o.;.3.9.3.3.3.3.3.3.3.1.q.q.q.q.q.3.+.+.| | | c S S S S S 9 9 c S S S c c c 9 c S z z c c c c c 1 1 c 1 $ + 1 ",
"c C C C E C ` ` 7 c ` ;.3.3.3.3.+.+.+.+.+.+.+.1.q.q.3.3.3.+.| S c c S ` ` ` z 9 S S S S S S S S z z ` ` ` ` z z 1 c c c 9 1 = 1 ",
"c c C C E ` ` ` ` ` o.o.9.9.t.t.+.+.+.+.+.+.1.1.q.q.3.3.3.+.| S ` S c c S S S c z z z z c c c c c z ` ` ` ` c c 1 1 c c 1 1 = = ",
"c c C E ` ` o.;.3.;.o.o.o.3.9.9.+.+.+.+.+.3.1.q.q.3.3.3.+.+.| S +.S 9 9 9 S S | 9 9 9 9 9 9 c c c c c ` S c c c 1 1 c c 1 = $ = ",
"a c c E ` o.;.;.` ` ` ` ` ` ` ` +.+.+.3.3.3.q.q.3.+.+.+.+.+.| S +.S 9 9 9 S S | 9 9 9 9 9 9 9 c G c ` ` ` S c c 1 5 9 5 1 = $ = ",
"7 7 c C C ` o.o.C E ` ` ` E c c +.+.+.3.3.3.q.q.+.+.+.+.+.+.` S S z 9 9 S S S S 9 c c c c c S S S ` ` | ` ` ` ` 1 5 9 1 1 1 1 1 ",
"7 a c c C E ` o.C ` o.3.o.` C c ` ` +.+.3.3.1.1.+.+.` ` +.+.S S 9 9 9 S ` S S S c c c c S S S S ` ` | +.+.` ` ` 9 9 c c 1 = 1 1 ",
"7 7 a c c c C C ` o.o.o.;.o.` ` S S ` +.3.3.+.+.+.` ` ` +.+.` S c c c c S ` S S 9 c c c S S S ` ` ` | +.3.| ` ` c c c 9 1 1 1 c ",
"7 7 a a c c c c o.o.` ` ` ` o.+.c S ` +.+.+.+.+.` S ` ` +.+.` S S c 9 c S ` S S 9 9 c c S S S S ` ` ` | | ` ` ` c c c c 5 1 5 9 ",
": 7 a a E E ` ` C ` ` 3.3.3.` ` ` ` +.+.+.+.` ` S S +.+.+.+.S z c 9 9 c S S c c ` ` S S S ` ` ` ` ` 3.3.3.3.| ` +.3.` c 9 1 1 1 ",
": : a a C E ` ` c C ` ` ` ` ` S ` ` +.+.+.+.` ` S S | +.+.+.S S S c c S S S z c S S S S S ` ` ` ` ` ` ` ` ` ` ` z z z c 1 1 1 5 ",
": : a a C C E E c c c c z z z z ` ` +.+.+.+.` ` ` ` | | | | ` ` ` S S S S S z 9 9 9 c c S S S ` ` ` ` ` ` ` ` ` c c c c 5 5 c c ",
": : a a s s C C C c c c c c I ` ` +.+.+.+.+.+.` +.| S S S ` +.+.+.` ` ` | S S 9 9 9 9 9 9 c c c c z z S S z z c c z ` z c c c ` ",
": 7 a a a s C C ` C c c c z ` | +.+.+.+.+.+.+.+.+.` S S S +.+.3.+.+.` +.+.` S c S S c c 9 9 9 9 c c z z c c c c ` ` ` S c c c ` ",
"a a a a s E E C ` ` z c z ` ` | +.+.+.+.+.+.+.+.+.` S S ` +.3.3.3.+.+.+.3.+.` S +.+.+.` S S S S z z S S S ` c c z ` S c c 1 c c ",
"a a C E E E E E C C c c c ` ` ` +.+.+.3.3.+.+.+.` ` ` | +.+.3.3.+.+.+.+.3.3.+.` +.+.+.+.` ` S S ` ` ` ` ` ` ` ` z ` ` c 9 1 c c ",
"s C C E E E E E c c c c c ` I I +.+.+.3.3.+.+.+.S S ` +.+.+.3.3.+.+.+.+.3.q.3.+.S S ` ` ` ` S S ` ` ` ` ` ` ` ` ` ` ` ` c c S ` ",
"a a a a C C E E ` c 1 7 ` 3.` c S ` +.3.3.3.+.+.` ` ` 3.q.q.+.+.+.+.+.+.+.+.` | +.+.+.+.+.3.3.3.` | | ` ` ` ` ` 3.3.3.| S c c c ",
"6 a a s E E C C ` c c c ` ` I c S ` ` +.+.+.+.+.+.+.+.+.3.q.3.+.+.+.+.+.+.+.` | ` ` ` ` +.+.+.+.3.3.3.3.+.3.+.3.` ` | ` c c c c ",
"6 a C E E E C c c C S ` S z c c S S S ` ` +.+.+.+.+.+.+.3.q.q.q.+.+.+.+.+.+.+.` S S S S ` S ` ` 3.3.+.3.+.+.+.3.` ` ` z c 9 c z ",
"6 a E E o.E c a 7 c ` ` S c c z ` S S S S ` +.+.q.+.+.+.3.q.q.q.+.+.+.+.+.+.+.` S S S S S S S ` 3.+.+.+.+.+.+.3.` ` ` ` c 9 9 c ",
"6 a E ..o.E c a % 7 ` ` S z I | ` S S S S ` +.+.q.+.+.+.+.q.q.q.3.3.3.3.3.+.+.+.S S S S S S ` ` | ` ` ` ` ` ` ` 3.3.3.` c c c c ",
"a s C ..E E C c = 7 c ` S S | =.S S S | ` +.+.+.+.+.+.+.3.q.q.q.3.3.3.3.3.+.+.+.S S S S ` ` | +.` ` ` ` ` ` ` ` i.i.1.| c c c c ",
"s s C E E E C c 7 c c c c ` ` | S S ` +.+.+.+.+.+.+.+.+.3.q.3.+.+.+.3.3.3.3.+.+.` ` S S | | | | | | +.| | ` ` ` 1.1.3.| ` c c c ",
"E E E C E E C C C c c c c ` ` ` S ` +.3.3.3.+.+.` ` ` 3.q.q.+.+.+.+.3.3.3.3.+.+.S S S S S ` ` | 3.3.3.3.3.3.+.+.3.3.3.| ` c c c ",
"d G @.` @.G G G G G ` ;.3.o.C 9 S ` ` +.+.3.3.3.+.+.+.+.3.3.q.q.q.q.3.3.+.+.+.+.` S ` S S ` +.+.+.+.+.+.+.+.3.3.` ` $.G e 1 e c ",
"d G @.$.@.G G G E E ` o.;.o.C 9 S S ` +.+.3.3.q.+.+.+.+.3.3.q.q.q.q.3.3.+.+.+.+.S S S S ` ` +.+.+.+.+.+.+.+.3.3.3.3.3.` G c G G ",
"d G @.$.@.G G E ` E E ` o.o.S C S ` ` +.+.3.q.q.+.+.+.+.+.3.3.q.q.1.+.+.+.+.+.+.S S S ` ` +.+.3.+.+.+.+.+.+.3.3.3.3.3.$.` c I ` ",
"e d @.$.@.G G E ` G c c E ` S C ` +.+.+.+.+.+.+.+.+.+.+.+.3.3.q.q.1.3.+.+.+.+.+.S S S S ` +.+.3.+.+.+.+.+.+.3.3.| | $.` ` G I I ",
"e G @.$.@.G E ` E c a a c E C C 3.+.+.+.+.+.+.+.+.+.+.+.+.+.3.3.1.1.+.+.+.+.+.+.S ` ` ` +.+.+.+.+.+.+.+.+.+.+.+.` ` $.=.$.$.` ` ",
"e G G $.@.@.E ` c c a a c C C C 3.1.+.3.+.+.+.+.+.` ` +.+.+.+.3.1.+.+.+.+.` ` +.` ` +.+.+.+.+.+.+.+.+.+.+.+.+.+.3.3.3.w.w.r.3.$.",
"e d G @.@.@.` ` G c c c ` ` S C +.+.+.3.3.3.3.3.` ` | | +.+.3.3.1.+.+.+.` ` ` ` +.+.+.+.+.+.| S +.+.+.+.+.+.+.+.3.3.3.w.i.i.w.3.",
"e d G @.@.@.$.$.G G C ` o.o.o.S ` ` +.+.3.q.q.q.` | | +.+.+.+.3.3.+.+.+.` ` ` ` +.+.3.3.+.+.` S ` ` ` ` ` ` ` ` 3.` $.3.i.i.3.$.",
"e d G G G G E $.` E E ` ;.9.9.9.3.+.1.q.q.q.3.3.` ` +.3.q.q.3.+.3.q.q.3.+.+.+.+.+.+.+.+.+.+.+.+.S ` ` ` | | ` ` ` 3.i.i.w.3.3.3.",
"d G @.G G G G E c a c E ` ;.o.o.+.+.+.+.3.+.+.+.+.` +.+.q.q.3.+.3.3.3.+.+.` ` ` +.+.+.+.+.+.| S S ` ` ` | | ` ` ` 3.i.a.i.w.w.w.",
"G G $.@.G G c G a a a C ` ` S C +.+.1.q.q.q.q.q.+.+.+.+.3.q.q.3.+.+.+.+.` ` S ` ` ` +.+.` | S S S S ` ` +.| ` ` +.1.i.s.a.a.i.i.",
"G G $.@.G G c G c G C ` ;.;.` C +.3.1.q.q.q.q.q.3.+.+.+.3.q.q.q.+.+.+.+.+.+.` S ` ` +.+.` ` S S S S ` ` +.+.` ` 3.3.i.a.a.a.i.i.",
"y G G @.G G G G G G E ` ;.;.S C S S ` ` +.+.+.+.3.+.+.+.3.q.q.q.q.+.+.+.+.+.+.` +.+.+.+.+.+.` ` S S | ` ` ` ` ` ` | 3.i.a.i.i.w.",
"e y G @.G G a G a a c C ` ` S C S S ` ` +.+.+.+.+.+.+.+.3.q.q.3.q.+.` +.+.3.+.S +.+.+.+.+.+.` ` S S | | ` ` ` ` ` ` 3.w.i.i.i.w.",
"e e G @.G y e 1 e e 1 a C ` S S ` ` +.+.3.1.3.3.+.` +.3.q.q.3.+.q.+.` ` +.+.` S ` ` +.+.| ` ` S S S +.+.` ` ` ` ` ` $.w.i.a.i.w.",
"e d G G d e * * e e 1 a C ` o.o.S S ` ` +.+.+.+.` ` +.3.q.q.+.+.3.` S S +.+.` c ` ` S S S S S S S S +.+.` ` ` ` ` ` $.w.a.s.i.w."
};
