/* XPM */
static char *d878c96be85143be934126f7e34ab6f0nuYI9y9SwoYyJCUc[] = {
/* columns rows colors chars-per-pixel */
"64 64 256 2 ",
"   c black",
".  c #010101",
"X  c #020202",
"o  c gray1",
"O  c #040404",
"+  c gray2",
"@  c #060606",
"#  c #070707",
"$  c gray3",
"%  c #090909",
"&  c gray4",
"*  c #0B0B0B",
"=  c #0C0C0C",
"-  c gray5",
";  c #0E0E0E",
":  c gray6",
">  c #101010",
",  c #111111",
"<  c gray7",
"1  c #131313",
"2  c gray8",
"3  c #151515",
"4  c #161616",
"5  c gray9",
"6  c #181818",
"7  c #191919",
"8  c gray10",
"9  c #1B1B1B",
"0  c gray11",
"q  c #1D1D1D",
"w  c #1E1E1E",
"e  c gray12",
"r  c #202020",
"t  c gray13",
"y  c #222222",
"u  c #232323",
"i  c gray14",
"p  c #252525",
"a  c gray15",
"s  c #272727",
"d  c #282828",
"f  c gray16",
"g  c #2A2A2A",
"h  c gray17",
"j  c #2C2C2C",
"k  c #2D2D2D",
"l  c gray18",
"z  c #2F2F2F",
"x  c gray19",
"c  c #313131",
"v  c #323232",
"b  c gray20",
"n  c #343434",
"m  c #353535",
"M  c gray21",
"N  c #373737",
"B  c gray22",
"V  c #393939",
"C  c #3A3A3A",
"Z  c gray23",
"A  c #3C3C3C",
"S  c gray24",
"D  c #3E3E3E",
"F  c #3F3F3F",
"G  c gray25",
"H  c #414141",
"J  c gray26",
"K  c #434343",
"L  c #444444",
"P  c gray27",
"I  c #464646",
"U  c gray28",
"Y  c #484848",
"T  c #494949",
"R  c gray29",
"E  c #4B4B4B",
"W  c #4C4C4C",
"Q  c gray30",
"!  c #4E4E4E",
"~  c gray31",
"^  c #505050",
"/  c #515151",
"(  c gray32",
")  c #535353",
"_  c gray33",
"`  c #555555",
"'  c #565656",
"]  c gray34",
"[  c #585858",
"{  c gray35",
"}  c #5A5A5A",
"|  c #5B5B5B",
" . c gray36",
".. c #5D5D5D",
"X. c gray37",
"o. c #5F5F5F",
"O. c #606060",
"+. c gray38",
"@. c #626262",
"#. c gray39",
"$. c #646464",
"%. c #656565",
"&. c gray40",
"*. c #676767",
"=. c #686868",
"-. c DimGray",
";. c #6A6A6A",
":. c gray42",
">. c #6C6C6C",
",. c #6D6D6D",
"<. c gray43",
"1. c #6F6F6F",
"2. c gray44",
"3. c #717171",
"4. c #727272",
"5. c gray45",
"6. c #747474",
"7. c gray46",
"8. c #767676",
"9. c #777777",
"0. c gray47",
"q. c #797979",
"w. c gray48",
"e. c #7B7B7B",
"r. c #7C7C7C",
"t. c gray49",
"y. c #7E7E7E",
"u. c gray50",
"i. c #808080",
"p. c #818181",
"a. c gray51",
"s. c #838383",
"d. c #848484",
"f. c gray52",
"g. c #868686",
"h. c gray53",
"j. c #888888",
"k. c #898989",
"l. c gray54",
"z. c #8B8B8B",
"x. c gray55",
"c. c #8D8D8D",
"v. c #8E8E8E",
"b. c gray56",
"n. c #909090",
"m. c gray57",
"M. c #929292",
"N. c #939393",
"B. c gray58",
"V. c #959595",
"C. c gray59",
"Z. c #979797",
"A. c #989898",
"S. c gray60",
"D. c #9A9A9A",
"F. c #9B9B9B",
"G. c gray61",
"H. c #9D9D9D",
"J. c gray62",
"K. c #9F9F9F",
"L. c #A0A0A0",
"P. c gray63",
"I. c #A2A2A2",
"U. c gray64",
"Y. c #A4A4A4",
"T. c #A5A5A5",
"R. c gray65",
"E. c #A7A7A7",
"W. c gray66",
"Q. c #A9A9A9",
"!. c #AAAAAA",
"~. c gray67",
"^. c #ACACAC",
"/. c gray68",
"(. c #AEAEAE",
"). c #AFAFAF",
"_. c gray69",
"`. c #B1B1B1",
"'. c #B2B2B2",
"]. c gray70",
"[. c #B4B4B4",
"{. c gray71",
"}. c #B6B6B6",
"|. c #B7B7B7",
" X c gray72",
".X c #B9B9B9",
"XX c gray73",
"oX c #BBBBBB",
"OX c #BCBCBC",
"+X c gray74",
"@X c gray",
"#X c gray75",
"$X c #C0C0C0",
"%X c #C1C1C1",
"&X c gray76",
"*X c #C3C3C3",
"=X c gray77",
"-X c #C5C5C5",
";X c #C6C6C6",
":X c gray78",
">X c #C8C8C8",
",X c gray79",
"<X c #CACACA",
"1X c #CBCBCB",
"2X c gray80",
"3X c #CDCDCD",
"4X c #CECECE",
"5X c gray81",
"6X c #D0D0D0",
"7X c gray82",
"8X c #D2D2D2",
"9X c LightGray",
"0X c gray83",
"qX c #D5D5D5",
"wX c gray84",
"eX c #D7D7D7",
"rX c #D8D8D8",
"tX c gray85",
"yX c #DADADA",
"uX c gray86",
"iX c gainsboro",
"pX c #DDDDDD",
"aX c gray87",
"sX c #DFDFDF",
"dX c gray88",
"fX c #E1E1E1",
"gX c #E2E2E2",
"hX c gray89",
"jX c #E4E4E4",
"kX c gray90",
"lX c #E6E6E6",
"zX c #E7E7E7",
"xX c gray91",
"cX c #E9E9E9",
"vX c #EAEAEA",
"bX c gray92",
"nX c #ECECEC",
"mX c gray93",
"MX c #EEEEEE",
"NX c #EFEFEF",
"BX c gray94",
"VX c #F1F1F1",
"CX c gray95",
"ZX c #F3F3F3",
"AX c #F4F4F4",
"SX c gray96",
"DX c #F6F6F6",
"FX c gray97",
"GX c #F8F8F8",
"HX c #F9F9F9",
"JX c gray98",
"KX c #FBFBFB",
"LX c gray99",
"PX c #FDFDFD",
"IX c #FEFEFE",
"UX c white",
/* pixels */
"G D G D S S Z A Z V D D C A A A V A Z Z C D S Z Z D D S S J G S D A V Z C A V Z C S C C V C C B Z B N N V C B Z C Z D F G H K P ",
"S A S A A A D A A C C S C Z B C C V Z C Z Z D A A D S F D G G S S A Z A C Z C V A Z C Z V V C V V N B V A C Z Z A D D G K K P I ",
"S H S F S Z F G C Z C Z C Z V D A Z V Z V D Z Z C S D H F S D H S A A D A A S A Z Z V A C D A Z V C Z V C V S S S D H J K L L I ",
"D A S Z D A Z C Z A V C C B B C C V Z Z C A D A C G S Z S S G H S G Z A C Z Z C Z C C Z C D H V Z V V V Z Z Z Z A S H K J K P P ",
"S S A K D C Z V C C C B B C Z C C M N M V Z V V C A F S G S Z S C Z Z V A V A C C C Z S Z N B V C B V B C Z S S S S G J J K P L ",
"A D S F Z C A B V Z B B M C S N M M N N B C Z V B B Z Z S A Z V C C V Z Z V B V C A B N C C V V V V C H A A Z S S S F G J K K K ",
"A S S V C C C C N B B V M m N N m N B M M V M N V V Z C B C V B V Z B B C C M N C H B N B B V A D C V V C V Z Z A D S G J J L J ",
"C A A Z V V V C C B M N N n C S n n b n M N m M B B B Z C S C V V N N B N V N N N M C V B N B B V V V B C C V A A A A D G H L J ",
"Z A S A B B V m V V V M N m m B m m b b m m N V M m N N N N V B V N M m n m m M m M N N m C N M m N C C B C C C Z A S D F F J J ",
"Z A C Z V B Z m B M m v m N v N n b M n m N n n B B m B N N V C V m m N C B M V B m b M m Z N N M m N N B C V V C A A A A S F F ",
"A V B B V B m n m b n m c V n c b c b b v m c v M B n m m N M m n m N b M M b b m m M M n b S V n m B n B Z V B C Z Z C A A F D ",
"C V V B V N N V M c b M v V V b c c v b c c b m v b n m m b b m m b M m n v v c v c m n v v V m n M m m M S B M V A C C A S A S ",
"C C V Z V m B M c M N n c m b c c x m x c b v c b b M m n M M m N M N v b z v v c b n N N v v b m v n m m M n M N V B B C Z Z Z ",
"Z V B B N M N M M b n n v x m c x v n v x b v x c N b v b n b n n m c c b b x c v v c N b n v v M n b b b n m M B N V B A B V C ",
"V V V N N m m m B n c M b z n b c c x c z v x c c v c v c n b c b c c x c x z z z z x x c c c b c c b b M v n m N M M B D S N B ",
"Z V B M B B N m M b c m n v v x b b v x x l x x x c v v v n v v b v c v b n x n c c b b n v b n c b z x n n b n m M N N N Z V V ",
"A C Z Z N V V M M c v c m b x x b M v c v v c b m v b b b v v v x c x v c b c c c v c b b b c v v m v b c c n b m m m n M M V M ",
"V A A B N N n m m b b x N m b n M b v c x c v v m v z v v v b b c n n b x b m v c z c b v c c n v v n b b b N b n n m m m V C C ",
"B C C B V Z N m b m S n N n M c v v n b x N b v b v n n n m N M x c m V c v v c v c x c n z n n z z x b b m b b b M n m M B M B ",
"V C V N N C M m n N M b m M v x M c c c b n c v c b v b b b m V v x B M v b v v v c N A n c b v b b c x v x c c v m b N M m m M ",
"A V C N m N M M N n m n v b c c b c v x b v x v b v b c c c v v c m N x v c c c v v m M b M n x N n v b x x c v m n v m m M M m ",
"V C N B C M V m b n n b b M N m n v v v c c b b M M M b v N m v M v M n v v v b M M c m v n v v c b c x v v c v m M b M n M N B ",
"N M V V N M m m n m n N V v m b v n x c m v b b c b v v m m n b c v c n m b b b B N n b b c x v b M v x b b m c b n m N m N V B ",
"M C B B N B n V m m m c m b b v c v N M b N v m n n b n v v n n n m v b b C M N b b m c b b c b n c c c n v x v b b B m m M M B ",
"N B V C M N M M b m b B n c b n b b b N m v v n b b n n b c v c b B M b n m v b n m v v v v b c c v c c n c v b b b n m m B B V ",
"N M V N n M n m m b b V b M b b b b v N m v b b n b v b n n v b x m N m n b c n n b v b m v b b b m v c x x b v n n b m B N N N ",
"m n B m m n m b M b n C b v N m n n v B M v v n b N N n c b b b x c v c x B n x v n M b M v v v m v c c v z c v b b b n N N N N ",
"m n n m M M m m b n v n m v b n m v v n n v M m b n b m b b n b c v z v n v v b b b v v c b b v c v c z c x v b v v n M m M V B ",
"m V b b n b m b b m N n n b v v b v v M n v m M v n b M N b b M m c c v n m M c c b M v m m M b n c v v c v x v m b v n N V B Z ",
"N n b b B n b m v n M b b b b n b N n n v v v m v b n m n b c c z z x n v b M n v c v m b b n b m b v c n m c x N m M m V Z m V ",
"b b n M M b b m B m b m b m v n m n m m n b n b b b n n v v v x b m v n V v z v c x x c b n c v b v x c c c m v v b B C V V V B ",
"b v b n n m m b m m M B b v N N b n m N v n b b N N m n v v n n b M c b b v n x x x v x v n v m n n m b v v c N M b m M M B B V ",
"v n v b b m m n B m b n m m N M b B n M n n b b b M n c b n v b v v x x c b x m v v m c n b v b n M n n c b v m m M N N N C A N ",
"c M m b m n n n n M m n b n M N n M n n n m n n b m n v n m B x c b c c c x x m v v n m n v v b b n b b v b n v c n m m C M C V ",
"v n m c V m N M n m m n n n b M m b b b b n b N M n v c v M b m B n v b c l b v n c m n b n B n n m V n n b N m v N m B M M N M ",
"v b b n B M n M M n m n n m n b B m v v b v c v c M m v b m v n v c M v n m n b b v m M m m m M M m N M n n b n b V v M B N C C ",
"n b v n m M M M M m N N N N M N N m N b v b b v v v n v v b b b v n m c v n c v v v n m n m b n M v v m m m n m b b M M M V V N ",
"m n n n m M M n A N m m N N M N m Z M M m v b v c v m n x v v n b m v m v v c c c x n M m m m b m n B n b n m n n M n m n V C C ",
"b M n n m N M V M m M N n N N m m V N N v c v v c m v b b z v c c b b n c v v n M B N M v b b b n m V M n B m n M M M m N B M V ",
"n b b m n m M N N C M N M N n M M B V c n b c b x v b v x z v b c c b c v c v N N v b n v v b M m n n n m N b m M m V B N B M M ",
"n n n N N m m V V V B V N C N m M b M M n b c c b b b m n b m V b v c b n m n M v m n v b B n v n n m M m b v M M m Z B m M N n ",
"n m M B V V B M M B M B M M B m M N B m M n v b v c b c c n c n v n N N m b v v b b V b v v n B B v m n m m n B C M m V N M V N ",
"N n m N m N N C N N B m N M n m m m m m C B n N m m n x v v m n n n m m c b v n N m c n v v b m c m m M m b m m m M M V m N Z C ",
"m B N m C M V B M N M B m m C N m b M m b b b v b v n c c c b v n b v b m M b m M b M v b c b n m b m m N m m C m B M M M M B V ",
"m n M Z M B M V C B B C B M C M M m N N n b N m b m c n M n v v b n n c C J m b N m b b m b n v n b n m n B m N m m B V m N M N ",
"m M N B Z V V B Z B B S B N B N S B Z B V M M n m M v m A V v b n m n M M C m b n v c n b v b n c b N M M B m M n B B N M B B V ",
"m V N B B V S V S V B B V B M B M m N N N m Z M N b n v N M M b b m m n N m n m B n n m N b b n b m n m m N N C C B C M A C V B ",
"M N B N N Z F V V V C Z Z C C N N M m m M m M N m m M n m m C m M m B n m M n b m m n M m b v m n n m M m m N C C N B M V N m N ",
"N N N B V C C C V V A V C B C B N B C V B M n B m m m n n m n n m V m M m n M M n n b M b n n b n N N n M B M N M M B B N N N B ",
"M V V N V V C V V V V V N V Z C M Z Z m B B N M m n n m n m M m m M n M V n B m n v b b v v n v c v b m m C N M M N V N B N V B ",
"B V V C V V C C V C C V Z Z V B N C B M C V m C Z B M V V n M V B M M N M M N N M m m m n m b m M B M N M B V C B V B V B V D B ",
"V B V C B C V C A Z A V Z Z N Z Z A N B V N M N A N V B B M B N B V B B M B B M C N m n m m b n M B C N N n V N N V C C V B V C ",
"C V C V C Z C V C Z A Z Z G Z B C Z B Z G V N N N N M M M C m N N B N N m M M N S M M N M b M m M M m m m V B B V C C A H V Z D ",
"V V V C C Z A Z V C A Z A C C C B Z B D A M A B N B B C B N Z A N N B N N N M V F B M N M M M N M N m m V Z C Z D C A D F A Z C ",
"A Z Z S V C C Z A S A Z S V C C C V B A C Z A V V V C S V N F D B V C B A Z S B N N Z V V A C V n N B A S Z Z V S S A F D S D S ",
"B V A A C Z C Z A S Z C Z V C C S C Z V B Z V N V N B V C C B V V V V V C V Z B B N N B B B V M N V B Z A V Z A F G S F G S D J ",
"V Z A C B F D Z A A C Z A S A V C C C C V H C N B B C C C C Z Z B Z Z A A C A N C V V Z C C C B C C C C Z A D D G D F D F H H K ",
"D V C D A C A Z S V C C V A V C B Z V B B Z B V Z Z V S V N Z C Z Z C C Z Z C D V Z A A Z V Z K Z V Z A S F K G F H H H H H J J ",
"Z Z V C Z V C C Z S Z B A Z C Z V C V C G V M V V V V C A V V V Z Z S S Z C Z A Z Z A Z A A Z D Z V A F A S F F J Y I K L L L L ",
"V N C C Z C B C V D D V C B B C C V B V Z A A V V V B A C V Z Z S S F S Z Z Z C A C S S D D S S A F F D A D H H H K P I I U I U ",
"B V B V V V V B B B C V V B V C B B V B N N V V A C N Z A A C S F Z Z A Z H S D F D S A F S S D S F G K U H K K K L I Y Y I U U ",
"V D B V Z V V Z C C C V V G V V V V B Z N Z Z C B V V Z A C C A S F F S A J G S D F G G J F G F D F G K I J K K Y Y Y U R E R R ",
"N C V B C V N V V V V V A V Z B N Z V V V V N V B V C Z A S Z S A D D D G S F F D F G F F F H H G H H H J K L P I I E E R R E W ",
"V V V B B B Z V Z Z B C V V V B C S V V C C B B B V B C D Z Z S F Z A H K D G G D F G J G G J P J L J K I L Y U U Y R Q E W ! E "
};
